<svg width="4596" height="2082" xmlns="http://www.w3.org/2000/svg" xmlns:xlink="http://www.w3.org/1999/xlink" xml:space="preserve" overflow="hidden"><g transform="translate(196 -206)"><rect x="248.5" y="475.5" width="284" height="284" stroke="#172C51" stroke-width="4.58333" stroke-miterlimit="8" fill="#B6CACB"/><text font-family="DengXian,DengXian_MSFontService,sans-serif" font-weight="700" font-size="55" transform="matrix(1 0 0 1 256.765 376)">Input</text><text font-family="DengXian,DengXian_MSFontService,sans-serif" font-weight="700" font-size="55" transform="matrix(1 0 0 1 256.765 442)">1@7x12</text><text font-family="DengXian,DengXian_MSFontService,sans-serif" font-weight="700" font-size="55" transform="matrix(1 0 0 1 458.431 442)">1</text><text font-family="DengXian,DengXian_MSFontService,sans-serif" font-weight="700" font-size="55" transform="matrix(1 0 0 1 716.895 376)">Feature</text><text font-family="DengXian,DengXian_MSFontService,sans-serif" font-weight="700" font-size="55" transform="matrix(1 0 0 1 716.895 442)">3</text><text font-family="DengXian,DengXian_MSFontService,sans-serif" font-weight="700" font-size="55" transform="matrix(1 0 0 1 747.259 442)">@7x121</text><rect x="709.5" y="475.5" width="283" height="284" stroke="#172C51" stroke-width="4.58333" stroke-miterlimit="8" fill="#B6CACB"/><rect x="764.5" y="530.5" width="283" height="284" stroke="#172C51" stroke-width="4.58333" stroke-miterlimit="8" fill="#A3BDD6"/><rect x="819.5" y="585.5" width="283" height="284" stroke="#172C51" stroke-width="4.58333" stroke-miterlimit="8" fill="#B6CACB"/><text font-family="DengXian,DengXian_MSFontService,sans-serif" font-weight="700" font-size="55" transform="matrix(1 0 0 1 1289.3 376)">Feature</text><text font-family="DengXian,DengXian_MSFontService,sans-serif" font-weight="700" font-size="55" transform="matrix(1 0 0 1 1289.3 442)">3</text><text font-family="DengXian,DengXian_MSFontService,sans-serif" font-weight="700" font-size="55" transform="matrix(1 0 0 1 1319.66 442)">2</text><text font-family="DengXian,DengXian_MSFontService,sans-serif" font-weight="700" font-size="55" transform="matrix(1 0 0 1 1350.02 442)">@7x121</text><rect x="1281.5" y="475.5" width="283" height="284" stroke="#172C51" stroke-width="4.58333" stroke-miterlimit="8" fill="#B6CACB"/><rect x="1336.5" y="530.5" width="283" height="284" stroke="#172C51" stroke-width="4.58333" stroke-miterlimit="8" fill="#A3BDD6"/><rect x="1391.5" y="585.5" width="283" height="284" stroke="#172C51" stroke-width="4.58333" stroke-miterlimit="8" fill="#B6CACB"/><rect x="1446.5" y="640.5" width="283" height="284" stroke="#172C51" stroke-width="4.58333" stroke-miterlimit="8" fill="#A3BDD6"/><rect x="1501.5" y="695.5" width="283" height="284" stroke="#172C51" stroke-width="4.58333" stroke-miterlimit="8" fill="#B6CACB"/><text font-family="DengXian,DengXian_MSFontService,sans-serif" font-weight="700" font-size="55" transform="matrix(1 0 0 1 1892.36 376)">Feature</text><text font-family="DengXian,DengXian_MSFontService,sans-serif" font-weight="700" font-size="55" transform="matrix(1 0 0 1 1892.36 442)">6</text><text font-family="DengXian,DengXian_MSFontService,sans-serif" font-weight="700" font-size="55" transform="matrix(1 0 0 1 1922.72 442)">4</text><text font-family="DengXian,DengXian_MSFontService,sans-serif" font-weight="700" font-size="55" transform="matrix(1 0 0 1 1953.09 442)">@7x121</text><rect x="1884.5" y="475.5" width="283" height="284" stroke="#172C51" stroke-width="4.58333" stroke-miterlimit="8" fill="#B6CACB"/><rect x="1939.5" y="530.5" width="283" height="284" stroke="#172C51" stroke-width="4.58333" stroke-miterlimit="8" fill="#A3BDD6"/><rect x="1994.5" y="585.5" width="283" height="284" stroke="#172C51" stroke-width="4.58333" stroke-miterlimit="8" fill="#B6CACB"/><rect x="2049.5" y="640.5" width="283" height="284" stroke="#172C51" stroke-width="4.58333" stroke-miterlimit="8" fill="#A3BDD6"/><rect x="2104.5" y="695.5" width="283" height="284" stroke="#172C51" stroke-width="4.58333" stroke-miterlimit="8" fill="#B6CACB"/><rect x="2616.5" y="472.5" width="117" height="117" stroke="#172C51" stroke-width="4.58333" stroke-miterlimit="8" fill="#B6CACB"/><text font-family="DengXian,DengXian_MSFontService,sans-serif" font-weight="700" font-size="55" transform="matrix(1 0 0 1 2624.08 373)">Feature</text><text font-family="DengXian,DengXian_MSFontService,sans-serif" font-weight="700" font-size="55" transform="matrix(1 0 0 1 2624.08 439)">64@3x12</text><rect x="2671.5" y="527.5" width="117" height="117" stroke="#172C51" stroke-width="4.58333" stroke-miterlimit="8" fill="#A3BDD6"/><rect x="2726.5" y="582.5" width="117" height="117" stroke="#172C51" stroke-width="4.58333" stroke-miterlimit="8" fill="#B6CACB"/><rect x="2781.5" y="637.5" width="117" height="117" stroke="#172C51" stroke-width="4.58333" stroke-miterlimit="8" fill="#A3BDD6"/><rect x="2836.5" y="692.5" width="117" height="117" stroke="#172C51" stroke-width="4.58333" stroke-miterlimit="8" fill="#B6CACB"/><path d="M562 623.125 652.521 623.125 652.521 636.875 562 636.875ZM645.646 609.375 686.896 630 645.646 650.625Z" fill="#7F7F7F"/><text font-family="DengXian,DengXian_MSFontService,sans-serif" font-weight="700" font-size="55" transform="matrix(1 0 0 1 568.084 840)">add</text><text font-family="DengXian,DengXian_MSFontService,sans-serif" font-weight="700" font-size="55" transform="matrix(1 0 0 1 481.001 906)">coordinate</text><rect x="1019.5" y="748.5" width="65.9999" height="66" stroke="#172C51" stroke-width="4.58333" stroke-miterlimit="8" fill="#6A9294"/><path d="M1081.5 748.5 1555.89 944.008" stroke="#000000" stroke-width="4.58333" stroke-miterlimit="8" fill="none" fill-rule="evenodd"/><path d="M1085.5 813.5 1555.8 944.008" stroke="#000000" stroke-width="4.58333" stroke-miterlimit="8" fill="none" fill-rule="evenodd"/><path d="M1016.5 814.5 1559.28 944.236" stroke="#000000" stroke-width="4.58333" stroke-miterlimit="8" fill="none" fill-rule="evenodd"/><text font-family="DengXian,DengXian_MSFontService,sans-serif" font-weight="700" font-size="55" transform="matrix(1 0 0 1 1150.5 952)">conv1</text><text font-family="DengXian,DengXian_MSFontService,sans-serif" font-weight="700" font-size="55" transform="matrix(1 0 0 1 1096.35 1018)">3x5 kernel</text><text font-family="DengXian,DengXian_MSFontService,sans-serif" font-weight="700" font-size="55" transform="matrix(1 0 0 1 1864.61 952)">conv2</text><text font-family="DengXian,DengXian_MSFontService,sans-serif" font-weight="700" font-size="55" transform="matrix(1 0 0 1 1810.46 1018)">3x5 kernel</text><rect x="1686.5" y="776.5" width="66" height="66" stroke="#172C51" stroke-width="4.58333" stroke-miterlimit="8" fill="#6A9294"/><path d="M0 0 396.296 47.3534" stroke="#000000" stroke-width="4.58333" stroke-miterlimit="8" fill="none" fill-rule="evenodd" transform="matrix(1 0 0 -1 1752.5 774.853)"/><path d="M0 0 396.296 115" stroke="#000000" stroke-width="4.58333" stroke-miterlimit="8" fill="none" fill-rule="evenodd" transform="matrix(1 0 0 -1 1752.5 842.5)"/><path d="M0 0 464.075 44.3443" stroke="#000000" stroke-width="4.58333" stroke-miterlimit="8" fill="none" fill-rule="evenodd" transform="matrix(1 0 0 -1 1684.5 774.844)"/><rect x="2616.5" y="968.5" width="117" height="116" stroke="#172C51" stroke-width="4.58333" stroke-miterlimit="8" fill="#B6CACB"/><text font-family="DengXian,DengXian_MSFontService,sans-serif" font-weight="700" font-size="55" transform="matrix(1 0 0 1 2624.08 868)">Feature</text><text font-family="DengXian,DengXian_MSFontService,sans-serif" font-weight="700" font-size="55" transform="matrix(1 0 0 1 2624.08 934)">64@3x12</text><rect x="2671.5" y="1023.5" width="117" height="116" stroke="#172C51" stroke-width="4.58333" stroke-miterlimit="8" fill="#A3BDD6"/><rect x="2726.5" y="1078.5" width="117" height="116" stroke="#172C51" stroke-width="4.58333" stroke-miterlimit="8" fill="#B6CACB"/><rect x="2781.5" y="1133.5" width="117" height="116" stroke="#172C51" stroke-width="4.58333" stroke-miterlimit="8" fill="#A3BDD6"/><rect x="2836.5" y="1188.5" width="117" height="116" stroke="#172C51" stroke-width="4.58333" stroke-miterlimit="8" fill="#B6CACB"/><rect x="2330.5" y="821.5" width="32" height="31.9999" stroke="#172C51" stroke-width="4.58333" stroke-miterlimit="8" fill="#6A9294"/><path d="M0 0 529.94 64.9996" stroke="#000000" stroke-width="4.58333" stroke-miterlimit="8" fill="none" fill-rule="evenodd" transform="matrix(1 0 0 -1 2362.5 822.5)"/><path d="M0 0 545.774 98.0231" stroke="#000000" stroke-width="4.58333" stroke-miterlimit="8" fill="none" fill-rule="evenodd" transform="matrix(1 0 0 -1 2363.5 852.523)"/><path d="M2360.5 851.5 2892.78 1231.79" stroke="#000000" stroke-width="4.58333" stroke-miterlimit="8" fill="none" fill-rule="evenodd"/><path d="M2365.5 824.5 2892.51 1231.4" stroke="#000000" stroke-width="4.58333" stroke-miterlimit="8" fill="none" fill-rule="evenodd"/><path d="M2330.5 853.5 2892.11 1232.18" stroke="#000000" stroke-width="4.58333" stroke-miterlimit="8" fill="none" fill-rule="evenodd"/><text font-family="DengXian,DengXian_MSFontService,sans-serif" font-weight="700" font-size="55" transform="matrix(1 0 0 1 2415.02 728)">a</text><text font-family="DengXian,DengXian_MSFontService,sans-serif" font-weight="700" font-size="55" transform="matrix(1 0 0 1 2443.67 728)">vg pooling</text><text font-family="DengXian,DengXian_MSFontService,sans-serif" font-weight="700" font-size="55" transform="matrix(1 0 0 1 2257.93 1102)">max pooling</text><text font-family="DengXian,DengXian_MSFontService,sans-serif" font-weight="700" font-size="55" transform="matrix(1 0 0 1 -162.509 573)">Output</text><text font-family="DengXian,DengXian_MSFontService,sans-serif" font-weight="700" font-size="55" transform="matrix(1 0 0 1 -162.509 639)">Characteristi</text><text font-family="DengXian,DengXian_MSFontService,sans-serif" font-weight="700" font-size="55" transform="matrix(1 0 0 1 149.731 639)">c</text><rect x="251.5" y="1422.5" width="284" height="283" stroke="#172C51" stroke-width="4.58333" stroke-miterlimit="8" fill="#E5D3BB"/><text font-family="DengXian,DengXian_MSFontService,sans-serif" font-weight="700" font-size="55" transform="matrix(1 0 0 1 259.619 1323)">Input</text><text font-family="DengXian,DengXian_MSFontService,sans-serif" font-weight="700" font-size="55" transform="matrix(1 0 0 1 259.619 1389)">1@10x71</text><text font-family="DengXian,DengXian_MSFontService,sans-serif" font-weight="700" font-size="55" transform="matrix(1 0 0 1 719.749 1323)">Feature</text><text font-family="DengXian,DengXian_MSFontService,sans-serif" font-weight="700" font-size="55" transform="matrix(1 0 0 1 719.749 1389)">3@10x71</text><rect x="711.5" y="1422.5" width="284" height="283" stroke="#172C51" stroke-width="4.58333" stroke-miterlimit="8" fill="#E5D3BB"/><rect x="766.5" y="1477.5" width="284" height="283" stroke="#172C51" stroke-width="4.58333" stroke-miterlimit="8" fill="#D5C3EB"/><rect x="821.5" y="1532.5" width="284" height="283" stroke="#172C51" stroke-width="4.58333" stroke-miterlimit="8" fill="#E5D3BB"/><text font-family="DengXian,DengXian_MSFontService,sans-serif" font-weight="700" font-size="55" transform="matrix(1 0 0 1 1292.15 1323)">Feature</text><text font-family="DengXian,DengXian_MSFontService,sans-serif" font-weight="700" font-size="55" transform="matrix(1 0 0 1 1292.15 1389)">32@10x71</text><rect x="1284.5" y="1422.5" width="283" height="283" stroke="#172C51" stroke-width="4.58333" stroke-miterlimit="8" fill="#E5D3BB"/><rect x="1339.5" y="1477.5" width="283" height="283" stroke="#172C51" stroke-width="4.58333" stroke-miterlimit="8" fill="#D5C3EB"/><rect x="1394.5" y="1532.5" width="283" height="283" stroke="#172C51" stroke-width="4.58333" stroke-miterlimit="8" fill="#E5D3BB"/><rect x="1449.5" y="1587.5" width="283" height="283" stroke="#172C51" stroke-width="4.58333" stroke-miterlimit="8" fill="#D5C3EB"/><rect x="1504.5" y="1642.5" width="283" height="283" stroke="#172C51" stroke-width="4.58333" stroke-miterlimit="8" fill="#E5D3BB"/><text font-family="DengXian,DengXian_MSFontService,sans-serif" font-weight="700" font-size="55" transform="matrix(1 0 0 1 1895.21 1323)">Feature</text><text font-family="DengXian,DengXian_MSFontService,sans-serif" font-weight="700" font-size="55" transform="matrix(1 0 0 1 1895.21 1389)">64@10x71</text><rect x="1887.5" y="1422.5" width="283" height="283" stroke="#172C51" stroke-width="4.58333" stroke-miterlimit="8" fill="#E5D3BB"/><rect x="1942.5" y="1477.5" width="283" height="283" stroke="#172C51" stroke-width="4.58333" stroke-miterlimit="8" fill="#D5C3EB"/><rect x="1997.5" y="1532.5" width="283" height="283" stroke="#172C51" stroke-width="4.58333" stroke-miterlimit="8" fill="#E5D3BB"/><rect x="2052.5" y="1587.5" width="283" height="283" stroke="#172C51" stroke-width="4.58333" stroke-miterlimit="8" fill="#D5C3EB"/><rect x="2107.5" y="1642.5" width="283" height="283" stroke="#172C51" stroke-width="4.58333" stroke-miterlimit="8" fill="#E5D3BB"/><rect x="2619.5" y="1419.5" width="117" height="116" stroke="#172C51" stroke-width="4.58333" stroke-miterlimit="8" fill="#E5D3BB"/><text font-family="DengXian,DengXian_MSFontService,sans-serif" font-weight="700" font-size="55" transform="matrix(1 0 0 1 2626.93 1319)">Feature</text><text font-family="DengXian,DengXian_MSFontService,sans-serif" font-weight="700" font-size="55" transform="matrix(1 0 0 1 2626.93 1385)">64@3x6</text><rect x="2674.5" y="1474.5" width="117" height="116" stroke="#172C51" stroke-width="4.58333" stroke-miterlimit="8" fill="#D5C3EB"/><rect x="2729.5" y="1529.5" width="117" height="116" stroke="#172C51" stroke-width="4.58333" stroke-miterlimit="8" fill="#E5D3BB"/><rect x="2784.5" y="1584.5" width="117" height="116" stroke="#172C51" stroke-width="4.58333" stroke-miterlimit="8" fill="#D5C3EB"/><rect x="2839.5" y="1639.5" width="117" height="116" stroke="#172C51" stroke-width="4.58333" stroke-miterlimit="8" fill="#E5D3BB"/><path d="M564 1570.13 654.521 1570.13 654.521 1583.88 564 1583.88ZM647.646 1556.38 688.896 1577 647.646 1597.63Z" fill="#7F7F7F"/><rect x="1022.5" y="1694.5" width="66.0001" height="66" stroke="#172C51" stroke-width="4.58333" stroke-miterlimit="8" fill="#C8A16E"/><path d="M1084.5 1694.5 1558.89 1890.01" stroke="#000000" stroke-width="4.58333" stroke-miterlimit="8" fill="none" fill-rule="evenodd"/><path d="M1088.5 1759.5 1558.8 1890.01" stroke="#000000" stroke-width="4.58333" stroke-miterlimit="8" fill="none" fill-rule="evenodd"/><path d="M1019.5 1760.5 1562.28 1890.24" stroke="#000000" stroke-width="4.58333" stroke-miterlimit="8" fill="none" fill-rule="evenodd"/><text font-family="DengXian,DengXian_MSFontService,sans-serif" font-weight="700" font-size="55" transform="matrix(1 0 0 1 1153.35 1898)">conv1</text><text font-family="DengXian,DengXian_MSFontService,sans-serif" font-weight="700" font-size="55" transform="matrix(1 0 0 1 1099.2 1964)">3x5 kernel</text><text font-family="DengXian,DengXian_MSFontService,sans-serif" font-weight="700" font-size="55" transform="matrix(1 0 0 1 1867.46 1898)">conv2</text><text font-family="DengXian,DengXian_MSFontService,sans-serif" font-weight="700" font-size="55" transform="matrix(1 0 0 1 1813.31 1964)">3x5 kernel</text><rect x="1689.5" y="1723.5" width="66" height="65" stroke="#172C51" stroke-width="4.58333" stroke-miterlimit="8" fill="#C8A16E"/><path d="M0 0 396.296 47.3534" stroke="#000000" stroke-width="4.58333" stroke-miterlimit="8" fill="none" fill-rule="evenodd" transform="matrix(1 0 0 -1 1755.5 1720.85)"/><path d="M0 0 396.296 115" stroke="#000000" stroke-width="4.58333" stroke-miterlimit="8" fill="none" fill-rule="evenodd" transform="matrix(1 0 0 -1 1755.5 1788.5)"/><path d="M0 0 464.075 44.3443" stroke="#000000" stroke-width="4.58333" stroke-miterlimit="8" fill="none" fill-rule="evenodd" transform="matrix(1 0 0 -1 1687.5 1720.84)"/><rect x="2619.5" y="1914.5" width="117" height="117" stroke="#172C51" stroke-width="4.58333" stroke-miterlimit="8" fill="#E5D3BB"/><text font-family="DengXian,DengXian_MSFontService,sans-serif" font-weight="700" font-size="55" transform="matrix(1 0 0 1 2626.93 1815)">Feature</text><text font-family="DengXian,DengXian_MSFontService,sans-serif" font-weight="700" font-size="55" transform="matrix(1 0 0 1 2626.93 1881)">64@3x6</text><rect x="2674.5" y="1969.5" width="117" height="117" stroke="#172C51" stroke-width="4.58333" stroke-miterlimit="8" fill="#D5C3EB"/><rect x="2729.5" y="2024.5" width="117" height="117" stroke="#172C51" stroke-width="4.58333" stroke-miterlimit="8" fill="#E5D3BB"/><rect x="2784.5" y="2079.5" width="117" height="117" stroke="#172C51" stroke-width="4.58333" stroke-miterlimit="8" fill="#D5C3EB"/><rect x="2839.5" y="2134.5" width="117" height="117" stroke="#172C51" stroke-width="4.58333" stroke-miterlimit="8" fill="#E5D3BB"/><rect x="2333.5" y="1768.5" width="32" height="30.9999" stroke="#172C51" stroke-width="4.58333" stroke-miterlimit="8" fill="#C8A16E"/><path d="M0 0 529.94 64.9996" stroke="#000000" stroke-width="4.58333" stroke-miterlimit="8" fill="none" fill-rule="evenodd" transform="matrix(1 0 0 -1 2365.5 1768.5)"/><path d="M0 0 545.774 98.0231" stroke="#000000" stroke-width="4.58333" stroke-miterlimit="8" fill="none" fill-rule="evenodd" transform="matrix(1 0 0 -1 2365.5 1799.52)"/><path d="M2363.5 1798.5 2895.78 2178.79" stroke="#000000" stroke-width="4.58333" stroke-miterlimit="8" fill="none" fill-rule="evenodd"/><path d="M2368.5 1771.5 2895.51 2178.4" stroke="#000000" stroke-width="4.58333" stroke-miterlimit="8" fill="none" fill-rule="evenodd"/><path d="M2333.5 1799.5 2895.11 2178.18" stroke="#000000" stroke-width="4.58333" stroke-miterlimit="8" fill="none" fill-rule="evenodd"/><text font-family="DengXian,DengXian_MSFontService,sans-serif" font-weight="700" font-size="55" transform="matrix(1 0 0 1 2417.88 1675)">a</text><text font-family="DengXian,DengXian_MSFontService,sans-serif" font-weight="700" font-size="55" transform="matrix(1 0 0 1 2446.52 1675)">vg pooling</text><text font-family="DengXian,DengXian_MSFontService,sans-serif" font-weight="700" font-size="55" transform="matrix(1 0 0 1 2260.79 2048)">max pooling</text><text font-family="DengXian,DengXian_MSFontService,sans-serif" font-weight="700" font-size="55" transform="matrix(1 0 0 1 -159.655 1519)">Transfer</text><text font-family="DengXian,DengXian_MSFontService,sans-serif" font-weight="700" font-size="55" transform="matrix(1 0 0 1 -159.655 1585)">Characteristi</text><text font-family="DengXian,DengXian_MSFontService,sans-serif" font-weight="700" font-size="55" transform="matrix(1 0 0 1 152.585 1585)">c</text><path d="M3087 1412.12 3177.52 1412.13 3177.52 1425.88 3087 1425.88ZM3170.65 1398.38 3211.9 1419 3170.65 1439.63Z" fill="#7F7F7F"/><text font-family="DengXian,DengXian_MSFontService,sans-serif" font-weight="700" font-size="55" transform="matrix(1 0 0 1 2991.69 1516)">1</text><text font-family="DengXian,DengXian_MSFontService,sans-serif" font-weight="700" font-size="55" transform="matrix(1 0 0 1 3022.06 1516)">-</text><text font-family="DengXian,DengXian_MSFontService,sans-serif" font-weight="700" font-size="55" transform="matrix(1 0 0 1 3049.56 1516)">d</text><text font-family="DengXian,DengXian_MSFontService,sans-serif" font-weight="700" font-size="55" transform="matrix(1 0 0 1 3097.68 1516)">flatten</text><text font-family="DengXian,DengXian_MSFontService,sans-serif" font-weight="700" font-size="55" transform="matrix(1 0 0 1 3043.83 1582)">concat</text><rect x="3279.5" y="1280.5" width="68" height="283" stroke="#172C51" stroke-width="4.58333" stroke-miterlimit="8" fill="#FFE7E7"/><text font-family="DengXian,DengXian_MSFontService,sans-serif" font-weight="700" font-size="55" transform="matrix(1 0 0 1 3186.57 1185)">Feature</text><text font-family="DengXian,DengXian_MSFontService,sans-serif" font-weight="700" font-size="55" transform="matrix(1 0 0 1 3186.57 1251)">1@6912x1</text><rect x="3546.5" y="762.5" width="285" height="167" stroke="#172C51" stroke-width="4.58333" stroke-miterlimit="8" fill="#6A9294"/><text fill="#FFFFFF" font-family="DengXian,DengXian_MSFontService,sans-serif" font-weight="700" font-size="64" transform="matrix(1 0 0 1 3624.6 867)">MLP</text><rect x="3089.5" y="727.5" width="421" height="225" stroke="#172C51" stroke-width="4.58333" stroke-miterlimit="8" fill="#6A9294"/><text fill="#FFFFFF" font-family="DengXian,DengXian_MSFontService,sans-serif" font-weight="700" font-size="55" transform="matrix(1 0 0 1 3200.51 792)">Physical </text><text fill="#FFFFFF" font-family="DengXian,DengXian_MSFontService,sans-serif" font-weight="700" font-size="55" transform="matrix(1 0 0 1 3210.52 858)">feature </text><text fill="#FFFFFF" font-family="DengXian,DengXian_MSFontService,sans-serif" font-weight="700" font-size="55" transform="matrix(1 0 0 1 3187.33 924)">extractor</text><rect x="3551.5" y="1803.5" width="285" height="167" stroke="#172C51" stroke-width="4.58333" stroke-miterlimit="8" fill="#C8A16E"/><text fill="#FFFFFF" font-family="DengXian,DengXian_MSFontService,sans-serif" font-weight="700" font-size="64" transform="matrix(1 0 0 1 3629.2 1908)">MLP</text><rect x="3094.5" y="1768.5" width="421" height="225" stroke="#172C51" stroke-width="4.58333" stroke-miterlimit="8" fill="#C8A16E"/><text fill="#FFFFFF" font-family="DengXian,DengXian_MSFontService,sans-serif" font-weight="700" font-size="55" transform="matrix(1 0 0 1 3205.11 1832)">Physical </text><text fill="#FFFFFF" font-family="DengXian,DengXian_MSFontService,sans-serif" font-weight="700" font-size="55" transform="matrix(1 0 0 1 3215.12 1898)">feature </text><text fill="#FFFFFF" font-family="DengXian,DengXian_MSFontService,sans-serif" font-weight="700" font-size="55" transform="matrix(1 0 0 1 3191.93 1964)">extractor</text><path d="M609 206.125 3306.96 206.125 3306.96 692.622 3293.21 692.622 3293.21 213 3300.09 219.875 609 219.875ZM3320.71 685.747 3300.09 726.997 3279.46 685.747Z" fill="#7F7F7F"/><path d="M615 210 615 625.439" stroke="#7F7F7F" stroke-width="13.75" stroke-miterlimit="8" fill="none" fill-rule="evenodd"/><path d="M988 206.125 3695.96 206.125 3695.96 725.671 3682.21 725.671 3682.21 213 3689.08 219.875 988 219.875ZM3709.71 718.796 3689.08 760.046 3668.46 718.796Z" fill="#7F7F7F"/><path d="M0-6.875 2687.4-6.875 2687.4 253.006 2673.65 253.006 2673.65 0 2680.52 6.875 0 6.875ZM2701.15 246.131 2680.52 287.381 2659.9 246.131Z" fill="#7F7F7F" transform="matrix(1 0 0 -1 624 2280.38)"/><path d="M0 0 0.000360892 707.92" stroke="#7F7F7F" stroke-width="13.75" stroke-miterlimit="8" fill="none" fill-rule="evenodd" transform="matrix(1 0 0 -1 620 2286.92)"/><path d="M0-6.875 3084.61-6.875 3084.61 276.398 3070.86 276.398 3070.86 0 3077.73 6.875 0 6.875ZM3098.36 269.523 3077.73 310.773 3057.11 269.523Z" fill="#7F7F7F" transform="matrix(1 0 0 -1 616 2280.77)"/><rect x="4194.5" y="1280.5" width="68" height="283" stroke="#172C51" stroke-width="4.58333" stroke-miterlimit="8" fill="#DCCDEF"/><text font-family="DengXian,DengXian_MSFontService,sans-serif" font-weight="700" font-size="55" transform="matrix(1 0 0 1 4132.06 1185)">Output</text><text font-family="DengXian,DengXian_MSFontService,sans-serif" font-weight="700" font-size="55" transform="matrix(1 0 0 1 4132.06 1251)">1@256x1</text><path d="M3375 1418.12 3617.98 1418.13 3617.98 1431.88 3375 1431.87ZM3611.1 1404.38 3652.35 1425 3611.1 1445.63Z" fill="#7F7F7F"/><rect x="3689.5" y="1341.5" width="285" height="167" stroke="#172C51" stroke-width="4.58333" stroke-miterlimit="8" fill="#A9D18E"/><text fill="#FFFFFF" font-family="DengXian,DengXian_MSFontService,sans-serif" font-weight="700" font-size="64" transform="matrix(1 0 0 1 3767.34 1446)">MLP</text><path d="M4018 1418.12 4108.52 1418.13 4108.52 1431.88 4018 1431.87ZM4101.65 1404.38 4142.9 1425 4101.65 1445.63Z" fill="#7F7F7F"/><path d="M0-6.875 124.739-6.875 124.739 194.151 117.864 187.276 435.108 187.276 435.108 201.026 110.989 201.026 110.989 0 117.864 6.875 0 6.875ZM428.233 173.526 469.483 194.151 428.233 214.776Z" fill="#7F7F7F" transform="matrix(1.83697e-16 1 1 -1.83697e-16 3300 952)"/><path d="M3685.98 930 3685.98 1070.2 3497 1070.2" stroke="#7F7F7F" stroke-width="13.75" stroke-miterlimit="8" fill="none" fill-rule="evenodd"/><text font-family="DengXian,DengXian_MSFontService,sans-serif" font-weight="700" font-size="55" transform="matrix(1 0 0 1 3534.82 1189)">1</text><text font-family="DengXian,DengXian_MSFontService,sans-serif" font-weight="700" font-size="55" transform="matrix(1 0 0 1 3565.18 1189)">-</text><text font-family="DengXian,DengXian_MSFontService,sans-serif" font-weight="700" font-size="55" transform="matrix(1 0 0 1 3592.68 1189)">d</text><text font-family="DengXian,DengXian_MSFontService,sans-serif" font-weight="700" font-size="55" transform="matrix(1 0 0 1 3640.81 1189)">flatten</text><text font-family="DengXian,DengXian_MSFontService,sans-serif" font-weight="700" font-size="55" transform="matrix(1 0 0 1 3586.95 1255)">concat</text><path d="M3298.13 1768.01 3298.13 1684.38 3494.55 1684.38 3487.68 1691.26 3487.68 1456.38 3501.43 1456.38 3501.43 1698.13 3305 1698.13 3311.88 1691.26 3311.88 1768.01ZM3473.93 1463.25 3494.55 1422 3515.18 1463.25Z" fill="#7F7F7F"/><path d="M0 0 112.369 0 112.369 197.594 329.585 197.594" stroke="#7F7F7F" stroke-width="13.75" stroke-miterlimit="8" fill="none" fill-rule="evenodd" transform="matrix(-1.83697e-16 -1 -1 1.83697e-16 3691.59 1803.58)"/><text font-family="DengXian,DengXian_MSFontService,sans-serif" font-weight="700" font-size="55" transform="matrix(1 0 0 1 3534.82 1568)">1</text><text font-family="DengXian,DengXian_MSFontService,sans-serif" font-weight="700" font-size="55" transform="matrix(1 0 0 1 3565.18 1568)">-</text><text font-family="DengXian,DengXian_MSFontService,sans-serif" font-weight="700" font-size="55" transform="matrix(1 0 0 1 3592.68 1568)">d</text><text font-family="DengXian,DengXian_MSFontService,sans-serif" font-weight="700" font-size="55" transform="matrix(1 0 0 1 3640.81 1568)">flatten</text><text font-family="DengXian,DengXian_MSFontService,sans-serif" font-weight="700" font-size="55" transform="matrix(1 0 0 1 3586.95 1634)">concat</text><text font-family="DengXian,DengXian_MSFontService,sans-serif" font-weight="700" font-size="55" transform="matrix(1 0 0 1 568.084 1175)">add</text><text font-family="DengXian,DengXian_MSFontService,sans-serif" font-weight="700" font-size="55" transform="matrix(1 0 0 1 481.001 1241)">coordinate</text></g></svg>