<svg width="3588" height="1574" xmlns="http://www.w3.org/2000/svg" xmlns:xlink="http://www.w3.org/1999/xlink" xml:space="preserve" overflow="hidden"><g transform="translate(-88 -640)"><path d="M0 360 165.906 0 560.094 0 726 360Z" stroke="#172C51" stroke-width="4.58333" stroke-linecap="square" stroke-miterlimit="8" stroke-dasharray="13.75 4.58333" fill="#EBEBEB" fill-rule="evenodd" transform="matrix(1.83697e-16 1 1 -1.83697e-16 2078.5 1112.5)"/><rect x="2166.5" y="1263.5" width="219" height="429" stroke="#172C51" stroke-width="4.58333" stroke-miterlimit="8" fill="#5A9BD2"/><text fill="#FFFFFF" font-family="Times New Roman,Times New Roman_MSFontService,sans-serif" font-weight="400" font-size="73" transform="matrix(-1.83697e-16 -1 1 -1.83697e-16 2255.32 1577)">hidden</text><text fill="#FFFFFF" font-family="Times New Roman,Times New Roman_MSFontService,sans-serif" font-weight="400" font-size="73" transform="matrix(-1.83697e-16 -1 1 -1.83697e-16 2343.32 1553)">MLP</text><path d="M757 1108.13 800.103 1108.13 800.103 1409.62 793.228 1402.74 2105.92 1402.74 2105.92 1416.49 786.353 1416.49 786.353 1115 793.228 1121.88 757 1121.88ZM2099.04 1388.99 2140.29 1409.62 2099.04 1430.24Z" fill="#91CD4B"/><path d="M867.5 643.5 1875.5 816.745 1875.5 1196.25 867.5 1369.5Z" stroke="#172C51" stroke-width="4.58333" stroke-linecap="square" stroke-miterlimit="8" stroke-dasharray="13.75 4.58333" fill="#EBEBEB" fill-rule="evenodd"/><path d="M867.5 1446.5 1875.5 1619.75 1875.5 1999.25 867.5 2172.5Z" stroke="#172C51" stroke-width="4.58333" stroke-linecap="square" stroke-miterlimit="8" stroke-dasharray="13.75 4.58333" fill="#EBEBEB" fill-rule="evenodd"/><text font-family="Times New Roman,Times New Roman_MSFontService,sans-serif" font-weight="700" font-size="73" transform="matrix(1 0 0 1 1600.24 2065)">Encoder</text><text font-family="Times New Roman,Times New Roman_MSFontService,sans-serif" font-weight="700" font-size="73" transform="matrix(1 0 0 1 1600.24 2153)">prior</text><path d="M1570 1655C1570 1642.85 1579.85 1633 1592 1633L1680 1633C1692.15 1633 1702 1642.85 1702 1655L1702 1752C1702 1764.15 1692.15 1774 1680 1774L1592 1774C1579.85 1774 1570 1764.15 1570 1752Z" fill="#FAD764" fill-rule="evenodd"/><path d="M1624.46 1688.69 1631.27 1688.69 1626.29 1710.78C1625.88 1712.56 1625.56 1714.11 1625.33 1715.42 1625.1 1716.73 1624.99 1717.92 1624.99 1719.01 1624.99 1720.41 1625.36 1721.48 1626.1 1722.21 1626.85 1722.94 1627.91 1723.3 1629.29 1723.3 1630.88 1723.3 1632.62 1722.45 1634.49 1720.75 1636.37 1719.05 1638.05 1716.91 1639.54 1714.34 1641.02 1711.78 1641.98 1709.51 1642.42 1707.54L1646.43 1688.69 1653.44 1688.69 1647.68 1714.34C1647.06 1717.13 1646.75 1719.13 1646.75 1720.34 1646.75 1721.42 1646.93 1722.21 1647.28 1722.69 1647.63 1723.18 1648.18 1723.42 1648.94 1723.42 1649.56 1723.42 1650.31 1723.18 1651.19 1722.69 1652.07 1722.21 1653.05 1721.36 1654.13 1720.14L1656.4 1722.41C1654.89 1723.9 1653.54 1725.04 1652.37 1725.85 1651.19 1726.67 1650.12 1727.24 1649.14 1727.58 1648.17 1727.91 1647.12 1728.08 1645.98 1728.08 1644.23 1728.08 1642.86 1727.56 1641.89 1726.52 1640.92 1725.48 1640.43 1724.03 1640.43 1722.17 1640.43 1720.65 1640.78 1719.03 1641.48 1717.3L1641.04 1717.06C1638.53 1720.79 1636.2 1723.5 1634.07 1725.19 1631.93 1726.87 1629.73 1727.72 1627.46 1727.72 1626.33 1727.72 1625.29 1727.54 1624.36 1727.17 1623.43 1726.81 1622.46 1726.11 1621.46 1725.08 1621.14 1726.71 1620.85 1728.89 1620.59 1731.63 1620.34 1734.37 1620.21 1736.84 1620.21 1739.03 1620.21 1739.84 1620.23 1740.48 1620.29 1740.97L1619.72 1743.69 1614.45 1743.69 1612.47 1741.26C1613.68 1736.77 1614.82 1732.16 1615.87 1727.44Z" fill-rule="evenodd"/><text fill="#000000" fill-opacity="0" font-family="Arial,Arial_MSFontService,sans-serif" font-size="54.9956" x="1612.47" y="1736.81">ğœ‡</text><rect x="900.5" y="1633.5" width="94.9999" height="361" stroke="#172C51" stroke-width="4.58333" stroke-miterlimit="8" fill="#5A9BD2"/><text fill="#FFFFFF" font-family="Times New Roman,Times New Roman_MSFontService,sans-serif" font-weight="400" font-size="73" transform="matrix(-1.83697e-16 -1 1 -1.83697e-16 971.808 1969)">1</text><text fill="#FFFFFF" font-family="Times New Roman,Times New Roman_MSFontService,sans-serif" font-weight="400" font-size="73" transform="matrix(-1.83697e-16 -1 1 -1.83697e-16 971.808 1932)">-</text><text fill="#FFFFFF" font-family="Times New Roman,Times New Roman_MSFontService,sans-serif" font-weight="400" font-size="73" transform="matrix(-1.83697e-16 -1 1 -1.83697e-16 971.808 1908)">d flatten</text><path d="M1570 1877C1570 1864.85 1579.85 1855 1592 1855L1680 1855C1692.15 1855 1702 1864.85 1702 1877L1702 1975C1702 1987.15 1692.15 1997 1680 1997L1592 1997C1579.85 1997 1570 1987.15 1570 1975Z" fill="#FAD764" fill-rule="evenodd"/><path d="M1638.47 1916.41C1634.85 1916.51 1631.61 1917.56 1628.75 1919.55 1625.88 1921.53 1623.66 1924.2 1622.08 1927.55 1620.5 1930.9 1619.71 1934.62 1619.71 1938.7 1619.71 1940.8 1620.05 1942.5 1620.74 1943.78 1621.43 1945.06 1622.29 1945.95 1623.32 1946.44 1624.34 1946.92 1625.45 1947.17 1626.64 1947.17 1629.37 1947.17 1631.73 1946.27 1633.73 1944.49 1635.73 1942.71 1637.35 1939.99 1638.57 1936.34 1639.8 1932.7 1640.42 1929.16 1640.42 1925.73 1640.42 1922.02 1639.77 1918.92 1638.47 1916.41ZM1644.71 1910.93 1657.6 1910.93 1656.39 1916.28 1643.13 1916.28 1643.05 1916.61C1644.59 1918.45 1645.7 1920.3 1646.38 1922.16 1647.05 1924.02 1647.39 1926.06 1647.39 1928.28 1647.39 1932.31 1646.52 1936.04 1644.8 1939.49 1643.07 1942.93 1640.65 1945.6 1637.54 1947.49 1634.43 1949.38 1630.92 1950.33 1627 1950.33 1622.55 1950.33 1619.15 1949.13 1616.81 1946.74 1614.47 1944.35 1613.31 1940.96 1613.31 1936.59 1613.31 1933.59 1613.76 1930.75 1614.66 1928.06 1615.57 1925.37 1616.91 1922.9 1618.68 1920.64 1620.45 1918.38 1622.45 1916.55 1624.69 1915.15 1626.94 1913.74 1629.61 1912.69 1632.72 1911.99 1635.83 1911.29 1639.82 1910.93 1644.71 1910.93Z" fill-rule="evenodd"/><text fill="#000000" fill-opacity="0" font-family="Arial,Arial_MSFontService,sans-serif" font-size="39.3926" x="1613.31" y="1945.4">ğœ</text><path d="M1334 1797.5 1366 1797.5 1366 1782 1397 1813 1366 1844 1366 1828.5 1334 1828.5Z" fill="#91CD4B" fill-rule="evenodd"/><path d="M1501 1693.5 1547 1693.5 1547 1683 1568 1704 1547 1725 1547 1714.5 1501 1714.5Z" fill="#91CD4B" fill-rule="evenodd"/><path d="M1733 1763.83C1733 1751.78 1742.78 1742 1754.83 1742L1842.17 1742C1854.22 1742 1864 1751.78 1864 1763.83L1864 1862.17C1864 1874.22 1854.22 1884 1842.17 1884L1754.83 1884C1742.78 1884 1733 1874.22 1733 1862.17Z" fill="#EB7D2D" fill-rule="evenodd"/><path d="M1756.03 1794.24 1784.84 1794.24 1785.61 1796.27 1766.28 1818.48C1762.52 1822.78 1759.27 1826.42 1756.51 1829.42L1756.76 1829.71 1765.91 1829.71C1767.54 1829.71 1768.78 1829.62 1769.64 1829.44 1770.51 1829.27 1771.26 1828.94 1771.91 1828.45 1772.56 1827.96 1773.23 1827.23 1773.92 1826.24 1774.61 1825.25 1775.47 1823.71 1776.49 1821.6L1780.1 1821.6 1777.63 1832.99 1748.28 1832.99 1747.51 1831 1769.68 1805.47C1772.82 1801.88 1775.11 1799.32 1776.57 1797.81L1776.33 1797.53 1766.85 1797.53C1765.44 1797.53 1764.41 1797.62 1763.77 1797.81 1763.12 1798 1762.47 1798.33 1761.82 1798.8 1761.17 1799.28 1760.48 1799.98 1759.73 1800.91 1758.99 1801.84 1758.16 1803.17 1757.24 1804.9L1753.63 1804.9Z" fill-rule="evenodd"/><text fill="#000000" fill-opacity="0" font-family="Arial,Arial_MSFontService,sans-serif" font-size="38.7441" x="1747.51" y="1828.14">ğ‘§</text><path d="M1808.99 1823.85C1807.8 1823.85 1806.7 1824.2 1805.7 1824.91 1804.69 1825.63 1803.61 1826.65 1802.46 1827.98 1801.93 1828.6 1801.44 1829.22 1801 1829.82 1800.55 1830.43 1800.14 1831.09 1799.78 1831.8 1799.42 1832.51 1799.1 1833.3 1798.81 1834.17 1798.53 1835.04 1798.28 1836.04 1798.07 1837.18 1797.79 1838.52 1797.58 1839.66 1797.42 1840.57 1797.26 1841.49 1797.19 1842.36 1797.19 1843.18 1797.19 1844.76 1797.55 1845.88 1798.29 1846.54 1799.02 1847.19 1800.19 1847.52 1801.82 1847.52 1802.95 1847.52 1804.01 1847.27 1804.99 1846.77 1805.98 1846.27 1806.87 1845.59 1807.68 1844.73 1808.48 1843.87 1809.19 1842.87 1809.81 1841.73 1810.44 1840.59 1810.96 1839.37 1811.38 1838.07 1811.8 1836.77 1812.12 1835.44 1812.35 1834.07 1812.57 1832.7 1812.68 1831.37 1812.68 1830.09 1812.68 1828 1812.4 1826.43 1811.82 1825.4 1811.24 1824.36 1810.3 1823.85 1808.99 1823.85ZM1795.4 1819.92C1796.83 1819.92 1797.93 1820.39 1798.72 1821.34 1799.52 1822.29 1799.91 1823.53 1799.91 1825.08 1799.91 1825.53 1799.88 1825.95 1799.81 1826.36 1799.74 1826.78 1799.62 1827.19 1799.44 1827.6L1799.85 1827.8C1801.77 1825.12 1803.65 1823.14 1805.49 1821.85 1807.34 1820.56 1809.28 1819.92 1811.31 1819.92 1813.63 1819.92 1815.41 1820.76 1816.65 1822.44 1817.89 1824.12 1818.51 1826.57 1818.51 1829.79 1818.51 1832.61 1818.08 1835.26 1817.21 1837.75 1816.34 1840.24 1815.17 1842.42 1813.68 1844.29 1812.2 1846.17 1810.47 1847.65 1808.51 1848.73 1806.55 1849.82 1804.47 1850.36 1802.28 1850.36 1800.76 1850.36 1799.44 1850.21 1798.31 1849.9 1797.19 1849.6 1796.26 1849.24 1795.52 1848.81 1795.34 1849.57 1795.15 1850.36 1794.95 1851.18 1794.74 1852 1794.55 1852.79 1794.36 1853.55 1794.17 1854.31 1794.02 1855.02 1793.91 1855.66 1793.79 1856.31 1793.73 1856.82 1793.73 1857.21 1793.73 1857.57 1793.78 1857.86 1793.89 1858.09 1794 1858.33 1794.19 1858.52 1794.48 1858.68 1794.76 1858.84 1795.14 1858.96 1795.6 1859.05 1796.07 1859.13 1796.66 1859.21 1797.36 1859.27L1797.27 1861.2 1786.96 1861.2 1794.11 1830.67C1794.34 1829.6 1794.51 1828.7 1794.61 1827.98 1794.71 1827.25 1794.76 1826.61 1794.76 1826.04 1794.76 1824.62 1794.18 1823.9 1793.03 1823.9 1792.68 1823.9 1792.32 1823.98 1791.97 1824.12 1791.62 1824.27 1791.24 1824.49 1790.84 1824.78 1790.44 1825.08 1790 1825.45 1789.53 1825.9 1789.05 1826.35 1788.51 1826.87 1787.93 1827.48L1785.91 1825.57C1786.88 1824.6 1787.78 1823.75 1788.59 1823.04 1789.4 1822.33 1790.18 1821.74 1790.93 1821.28 1791.68 1820.82 1792.42 1820.48 1793.13 1820.26 1793.84 1820.03 1794.6 1819.92 1795.4 1819.92Z" fill-rule="evenodd"/><text fill="#000000" fill-opacity="0" font-family="Arial,Arial_MSFontService,sans-serif" font-size="41.2793" x="1785.91" y="1856.04">ğ‘</text><path d="M1845.6 1819.92C1846.82 1819.92 1847.97 1820.04 1849.06 1820.27L1849.06 1827.54 1845.31 1827.54C1845.1 1826.99 1844.87 1826.52 1844.64 1826.12 1844.4 1825.72 1844.14 1825.38 1843.83 1825.12 1843.53 1824.86 1843.18 1824.66 1842.78 1824.53 1842.38 1824.41 1841.9 1824.34 1841.36 1824.34 1840.79 1824.34 1840.15 1824.52 1839.44 1824.89 1838.72 1825.25 1838.06 1825.74 1837.43 1826.36 1836.81 1826.99 1836.28 1827.71 1835.86 1828.53 1835.44 1829.35 1835.23 1830.22 1835.23 1831.14L1835.23 1842.36C1835.23 1843.59 1835.29 1844.53 1835.39 1845.19 1835.5 1845.84 1835.7 1846.34 1836 1846.67 1836.29 1847 1836.69 1847.24 1837.2 1847.39 1837.7 1847.53 1838.37 1847.72 1839.19 1847.96L1839.19 1849.83 1825.98 1849.83 1825.98 1847.96C1826.74 1847.68 1827.35 1847.47 1827.81 1847.31 1828.27 1847.16 1828.62 1846.92 1828.86 1846.59 1829.11 1846.27 1829.26 1845.8 1829.33 1845.17 1829.4 1844.55 1829.43 1843.64 1829.43 1842.45L1829.43 1829.85C1829.43 1828.5 1829.43 1827.4 1829.42 1826.54 1829.41 1825.68 1829.29 1824.98 1829.07 1824.45 1828.84 1823.91 1828.46 1823.5 1827.92 1823.22 1827.39 1822.93 1826.59 1822.7 1825.54 1822.53L1825.54 1820.53 1833.21 1820.21 1835.29 1820.21 1834.88 1825.43C1834.94 1825.47 1834.99 1825.49 1835.03 1825.5 1835.07 1825.51 1835.12 1825.53 1835.18 1825.57 1836.11 1824.56 1836.98 1823.69 1837.77 1822.97 1838.56 1822.24 1839.36 1821.66 1840.17 1821.21 1840.98 1820.76 1841.82 1820.43 1842.69 1820.23 1843.56 1820.02 1844.53 1819.92 1845.6 1819.92Z" fill-rule="evenodd"/><text fill="#000000" fill-opacity="0" font-family="Arial,Arial_MSFontService,sans-serif" font-size="29.9121" x="1825.54" y="1846.09">r</text><path d="M1814.5 1697 1814.5 1723 1825 1723 1804 1744 1783 1723 1793.5 1723 1793.5 1697Z" fill="#91CD4B" fill-rule="evenodd"/><rect x="1704" y="1690" width="110" height="21" fill="#91CD4B"/><path d="M1501 1915.5 1547 1915.5 1547 1905 1568 1926 1547 1947 1547 1936.5 1501 1936.5Z" fill="#91CD4B" fill-rule="evenodd"/><rect x="1069.5" y="1633.5" width="94.0002" height="361" stroke="#172C51" stroke-width="4.58333" stroke-miterlimit="8" fill="#5A9BD2"/><text fill="#FFFFFF" font-family="Times New Roman,Times New Roman_MSFontService,sans-serif" font-weight="400" font-size="73" transform="matrix(-1.83697e-16 -1 1 -1.83697e-16 1140.04 1890)">1280</text><rect x="1235.5" y="1633.5" width="94.0002" height="361" stroke="#172C51" stroke-width="4.58333" stroke-miterlimit="8" fill="#5A9BD2"/><text fill="#FFFFFF" font-family="Times New Roman,Times New Roman_MSFontService,sans-serif" font-weight="400" font-size="73" transform="matrix(-1.83697e-16 -1 1 -1.83697e-16 1306.43 1872)">640</text><rect x="1401.5" y="1633.5" width="94.9999" height="361" stroke="#172C51" stroke-width="4.58333" stroke-miterlimit="8" fill="#5A9BD2"/><text fill="#FFFFFF" font-family="Times New Roman,Times New Roman_MSFontService,sans-serif" font-weight="400" font-size="73" transform="matrix(-1.83697e-16 -1 1 -1.83697e-16 1472.82 1872)">320</text><path d="M1000 1797.5 1032 1797.5 1032 1782 1063 1813 1032 1844 1032 1828.5 1000 1828.5Z" fill="#91CD4B" fill-rule="evenodd"/><path d="M1168 1797.5 1200 1797.5 1200 1782 1231 1813 1200 1844 1200 1828.5 1168 1828.5Z" fill="#91CD4B" fill-rule="evenodd"/><path d="M0 10.5001 26 10.5001 26 0 47.0001 21.0001 26 42.0002 26 31.5002 0 31.5002Z" fill="#91CD4B" fill-rule="evenodd" transform="matrix(-1.83697e-16 -1 -1 1.83697e-16 1825 1934)"/><rect x="0" y="0" width="21.0003" height="110" fill="#91CD4B" transform="matrix(6.12323e-17 1 1 -6.12323e-17 1704 1920)"/><text font-family="Times New Roman,Times New Roman_MSFontService,sans-serif" font-weight="700" font-size="73" transform="matrix(1 0 0 1 1600.24 1266)">Encoder</text><text font-family="Times New Roman,Times New Roman_MSFontService,sans-serif" font-weight="700" font-size="73" transform="matrix(1 0 0 1 1600.24 1354)">posterior</text><path d="M1570 841.001C1570 828.85 1579.85 819 1592 819L1680 819C1692.15 819 1702 828.85 1702 841.001L1702 939C1702 951.15 1692.15 961 1680 961L1592 961C1579.85 961 1570 951.15 1570 939Z" fill="#FAD764" fill-rule="evenodd"/><path d="M1624.46 875.184 1631.27 875.184 1626.29 897.271C1625.88 899.054 1625.56 900.601 1625.33 901.911 1625.1 903.222 1624.99 904.417 1624.99 905.498 1624.99 906.903 1625.36 907.97 1626.1 908.7 1626.85 909.429 1627.91 909.794 1629.29 909.794 1630.88 909.794 1632.62 908.943 1634.49 907.241 1636.37 905.539 1638.05 903.404 1639.54 900.837 1641.02 898.271 1641.98 896.001 1642.42 894.029L1646.43 875.184 1653.44 875.184 1647.68 900.837C1647.06 903.62 1646.75 905.62 1646.75 906.836 1646.75 907.916 1646.93 908.7 1647.28 909.186 1647.63 909.672 1648.18 909.916 1648.94 909.916 1649.56 909.916 1650.31 909.672 1651.19 909.186 1652.07 908.7 1653.05 907.849 1654.13 906.633L1656.4 908.902C1654.89 910.388 1653.54 911.537 1652.37 912.347 1651.19 913.158 1650.12 913.732 1649.14 914.07 1648.17 914.407 1647.12 914.576 1645.98 914.576 1644.23 914.576 1642.86 914.056 1641.89 913.016 1640.92 911.976 1640.43 910.523 1640.43 908.659 1640.43 907.146 1640.78 905.525 1641.48 903.796L1641.04 903.553C1638.53 907.281 1636.2 909.99 1634.07 911.679 1631.93 913.367 1629.73 914.211 1627.46 914.211 1626.33 914.211 1625.29 914.029 1624.36 913.664 1623.43 913.3 1622.46 912.604 1621.46 911.577 1621.14 913.198 1620.85 915.38 1620.59 918.122 1620.34 920.865 1620.21 923.33 1620.21 925.519 1620.21 926.329 1620.23 926.978 1620.29 927.464L1619.72 930.179 1614.45 930.179 1612.47 927.748C1613.68 923.263 1614.82 918.656 1615.87 913.928Z" fill-rule="evenodd"/><text fill="#000000" fill-opacity="0" font-family="Arial,Arial_MSFontService,sans-serif" font-size="54.9956" x="1612.47" y="923.305">ğœ‡</text><rect x="900.5" y="819.5" width="94.9999" height="361" stroke="#172C51" stroke-width="4.58333" stroke-miterlimit="8" fill="#5A9BD2"/><text fill="#FFFFFF" font-family="Times New Roman,Times New Roman_MSFontService,sans-serif" font-weight="400" font-size="73" transform="matrix(-1.83697e-16 -1 1 -1.83697e-16 971.808 1156)">1</text><text fill="#FFFFFF" font-family="Times New Roman,Times New Roman_MSFontService,sans-serif" font-weight="400" font-size="73" transform="matrix(-1.83697e-16 -1 1 -1.83697e-16 971.808 1119)">-</text><text fill="#FFFFFF" font-family="Times New Roman,Times New Roman_MSFontService,sans-serif" font-weight="400" font-size="73" transform="matrix(-1.83697e-16 -1 1 -1.83697e-16 971.808 1094)">d flatten</text><path d="M1570 1063C1570 1050.85 1579.85 1041 1592 1041L1680 1041C1692.15 1041 1702 1050.85 1702 1063L1702 1161C1702 1173.15 1692.15 1183 1680 1183L1592 1183C1579.85 1183 1570 1173.15 1570 1161Z" fill="#FAD764" fill-rule="evenodd"/><path d="M1638.47 1102.9C1634.85 1103.01 1631.61 1104.05 1628.75 1106.04 1625.88 1108.02 1623.66 1110.69 1622.08 1114.04 1620.5 1117.39 1619.71 1121.11 1619.71 1125.19 1619.71 1127.3 1620.05 1128.99 1620.74 1130.27 1621.43 1131.56 1622.29 1132.44 1623.32 1132.93 1624.34 1133.41 1625.45 1133.66 1626.64 1133.66 1629.37 1133.66 1631.73 1132.77 1633.73 1130.98 1635.73 1129.2 1637.35 1126.48 1638.57 1122.84 1639.8 1119.19 1640.42 1115.65 1640.42 1112.22 1640.42 1108.52 1639.77 1105.41 1638.47 1102.9ZM1644.71 1097.43 1657.6 1097.43 1656.39 1102.78 1643.13 1102.78 1643.05 1103.1C1644.59 1104.94 1645.7 1106.79 1646.38 1108.65 1647.05 1110.52 1647.39 1112.56 1647.39 1114.77 1647.39 1118.8 1646.52 1122.53 1644.8 1125.98 1643.07 1129.42 1640.65 1132.09 1637.54 1133.98 1634.43 1135.87 1630.92 1136.82 1627 1136.82 1622.55 1136.82 1619.15 1135.62 1616.81 1133.23 1614.47 1130.84 1613.31 1127.46 1613.31 1123.08 1613.31 1120.08 1613.76 1117.24 1614.66 1114.55 1615.57 1111.86 1616.91 1109.39 1618.68 1107.13 1620.45 1104.88 1622.45 1103.05 1624.69 1101.64 1626.94 1100.24 1629.61 1099.18 1632.72 1098.48 1635.83 1097.78 1639.82 1097.43 1644.71 1097.43Z" fill-rule="evenodd"/><text fill="#000000" fill-opacity="0" font-family="Arial,Arial_MSFontService,sans-serif" font-size="39.3926" x="1613.31" y="1131.9">ğœ</text><path d="M1334 984.25 1366.5 984.25 1366.5 969 1397 999.5 1366.5 1030 1366.5 1014.75 1334 1014.75Z" fill="#91CD4B" fill-rule="evenodd"/><path d="M1501 879.5 1547 879.5 1547 869 1568 890 1547 911 1547 900.5 1501 900.5Z" fill="#91CD4B" fill-rule="evenodd"/><path d="M1733 950.834C1733 938.775 1742.78 929 1754.83 929L1842.17 929C1854.22 929 1864 938.775 1864 950.834L1864 1049.17C1864 1061.22 1854.22 1071 1842.17 1071L1754.83 1071C1742.78 1071 1733 1061.22 1733 1049.17Z" fill="#EB7D2D" fill-rule="evenodd"/><path d="M1756.21 980.736 1785.02 980.736 1785.79 982.763 1766.46 1004.97C1762.71 1009.27 1759.45 1012.92 1756.69 1015.91L1756.94 1016.2 1766.1 1016.2C1767.72 1016.2 1768.96 1016.11 1769.82 1015.93 1770.69 1015.76 1771.45 1015.43 1772.09 1014.94 1772.74 1014.46 1773.41 1013.72 1774.1 1012.73 1774.79 1011.75 1775.65 1010.2 1776.67 1008.09L1780.28 1008.09 1777.81 1019.48 1748.47 1019.48 1747.7 1017.49 1769.87 991.962C1773 988.369 1775.3 985.816 1776.75 984.303L1776.51 984.019 1767.03 984.019C1765.62 984.019 1764.6 984.114 1763.95 984.303 1763.3 984.492 1762.65 984.823 1762 985.296 1761.35 985.769 1760.66 986.471 1759.92 987.403 1759.17 988.335 1758.34 989.666 1757.42 991.395L1753.82 991.395Z" fill-rule="evenodd"/><text fill="#000000" fill-opacity="0" font-family="Arial,Arial_MSFontService,sans-serif" font-size="38.7441" x="1747.7" y="1014.64">ğ‘§</text><path d="M1809.18 1010.34C1807.98 1010.34 1806.89 1010.69 1805.88 1011.41 1804.87 1012.12 1803.79 1013.14 1802.64 1014.47 1802.11 1015.09 1801.63 1015.71 1801.18 1016.31 1800.73 1016.92 1800.32 1017.58 1799.96 1018.29 1799.6 1019 1799.28 1019.8 1798.99 1020.67 1798.71 1021.53 1798.46 1022.54 1798.25 1023.67 1797.97 1025.02 1797.76 1026.15 1797.6 1027.07 1797.45 1027.98 1797.37 1028.85 1797.37 1029.67 1797.37 1031.26 1797.73 1032.37 1798.47 1033.03 1799.2 1033.68 1800.38 1034.01 1802 1034.01 1803.13 1034.01 1804.19 1033.76 1805.18 1033.26 1806.16 1032.76 1807.06 1032.09 1807.86 1031.23 1808.66 1030.37 1809.37 1029.37 1810 1028.22 1810.62 1027.08 1811.14 1025.86 1811.56 1024.56 1811.98 1023.26 1812.31 1021.93 1812.53 1020.56 1812.75 1019.2 1812.87 1017.87 1812.87 1016.58 1812.87 1014.49 1812.58 1012.93 1812 1011.89 1811.43 1010.86 1810.48 1010.34 1809.18 1010.34ZM1843.19 1009.31C1842.1 1009.31 1841.07 1009.56 1840.11 1010.04 1839.16 1010.53 1838.28 1011.21 1837.48 1012.07 1836.68 1012.93 1835.96 1013.94 1835.32 1015.11 1834.69 1016.29 1834.15 1017.54 1833.71 1018.89 1833.27 1020.24 1832.94 1021.65 1832.7 1023.11 1832.47 1024.58 1832.35 1026.04 1832.35 1027.51 1832.35 1029.75 1832.81 1031.41 1833.74 1032.47 1834.67 1033.54 1836.08 1034.07 1837.98 1034.07 1839.03 1034.07 1840.03 1033.81 1840.96 1033.29 1841.9 1032.77 1842.76 1032.08 1843.54 1031.2 1844.32 1030.32 1845.02 1029.29 1845.64 1028.11 1846.25 1026.92 1846.77 1025.66 1847.2 1024.31 1847.63 1022.96 1847.96 1021.57 1848.19 1020.14 1848.41 1018.7 1848.52 1017.3 1848.52 1015.93 1848.52 1013.77 1848.09 1012.12 1847.23 1011 1846.37 1009.87 1845.03 1009.31 1843.19 1009.31ZM1843.75 1006.41C1845.51 1006.41 1847.04 1006.7 1848.36 1007.26 1849.68 1007.83 1850.78 1008.59 1851.66 1009.56 1852.54 1010.53 1853.2 1011.67 1853.64 1012.97 1854.07 1014.28 1854.29 1015.68 1854.29 1017.16 1854.29 1020.13 1853.85 1022.82 1852.98 1025.24 1852.1 1027.65 1850.88 1029.72 1849.33 1031.45 1847.78 1033.17 1845.95 1034.51 1843.85 1035.45 1841.75 1036.38 1839.47 1036.85 1837.01 1036.85 1835.39 1036.85 1833.93 1036.61 1832.64 1036.12 1831.35 1035.63 1830.26 1034.93 1829.36 1034.01 1828.46 1033.09 1827.78 1031.98 1827.3 1030.68 1826.82 1029.39 1826.58 1027.92 1826.58 1026.28 1826.58 1023.5 1827.01 1020.91 1827.88 1018.5 1828.75 1016.08 1829.95 1013.99 1831.49 1012.2 1833.02 1010.41 1834.83 1009 1836.92 1007.96 1839.01 1006.93 1841.29 1006.41 1843.75 1006.41ZM1795.58 1006.41C1797.01 1006.41 1798.12 1006.89 1798.91 1007.83 1799.7 1008.78 1800.09 1010.03 1800.09 1011.57 1800.09 1012.02 1800.06 1012.45 1799.99 1012.86 1799.92 1013.27 1799.8 1013.68 1799.62 1014.09L1800.03 1014.29C1801.95 1011.62 1803.83 1009.63 1805.67 1008.35 1807.52 1007.06 1809.46 1006.41 1811.49 1006.41 1813.81 1006.41 1815.6 1007.25 1816.84 1008.93 1818.08 1010.61 1818.7 1013.06 1818.7 1016.29 1818.7 1019.1 1818.26 1021.75 1817.39 1024.24 1816.52 1026.73 1815.35 1028.91 1813.86 1030.79 1812.38 1032.66 1810.65 1034.14 1808.69 1035.23 1806.73 1036.31 1804.65 1036.85 1802.47 1036.85 1800.94 1036.85 1799.62 1036.7 1798.5 1036.4 1797.37 1036.09 1796.44 1035.73 1795.7 1035.3 1795.52 1036.06 1795.33 1036.85 1795.13 1037.67 1794.92 1038.49 1794.73 1039.28 1794.54 1040.04 1794.36 1040.81 1794.2 1041.51 1794.09 1042.15 1793.97 1042.8 1793.91 1043.32 1793.91 1043.71 1793.91 1044.06 1793.97 1044.35 1794.07 1044.59 1794.18 1044.82 1794.38 1045.02 1794.66 1045.17 1794.94 1045.33 1795.32 1045.45 1795.79 1045.54 1796.26 1045.63 1796.84 1045.7 1797.54 1045.76L1797.46 1047.69 1787.14 1047.69 1794.29 1017.16C1794.53 1016.09 1794.69 1015.19 1794.79 1014.47 1794.89 1013.75 1794.94 1013.1 1794.94 1012.54 1794.94 1011.11 1794.36 1010.4 1793.21 1010.4 1792.86 1010.4 1792.51 1010.47 1792.15 1010.62 1791.8 1010.76 1791.43 1010.98 1791.03 1011.28 1790.63 1011.57 1790.19 1011.94 1789.71 1012.39 1789.23 1012.84 1788.7 1013.37 1788.11 1013.97L1786.09 1012.07C1787.07 1011.09 1787.96 1010.25 1788.77 1009.53 1789.58 1008.82 1790.36 1008.23 1791.11 1007.77 1791.87 1007.32 1792.6 1006.97 1793.31 1006.75 1794.02 1006.52 1794.78 1006.41 1795.58 1006.41Z" fill-rule="evenodd"/><text fill="#000000" fill-opacity="0" font-family="Arial,Arial_MSFontService,sans-serif" font-size="41.2793" x="1786.09" y="1042.53">ğ‘ğ‘œ</text><path d="M1814.5 883 1814.5 910 1825 910 1804 931 1783 910 1793.5 910 1793.5 883Z" fill="#91CD4B" fill-rule="evenodd"/><rect x="1704" y="877" width="110" height="19.9999" fill="#91CD4B"/><path d="M1501 1101.5 1547 1101.5 1547 1091 1568 1112 1547 1133 1547 1122.5 1501 1122.5Z" fill="#91CD4B" fill-rule="evenodd"/><rect x="1069.5" y="819.5" width="94.0002" height="361" stroke="#172C51" stroke-width="4.58333" stroke-miterlimit="8" fill="#5A9BD2"/><text fill="#FFFFFF" font-family="Times New Roman,Times New Roman_MSFontService,sans-serif" font-weight="400" font-size="73" transform="matrix(-1.83697e-16 -1 1 -1.83697e-16 1140.04 1076)">1280</text><rect x="1235.5" y="819.5" width="94.0002" height="361" stroke="#172C51" stroke-width="4.58333" stroke-miterlimit="8" fill="#5A9BD2"/><text fill="#FFFFFF" font-family="Times New Roman,Times New Roman_MSFontService,sans-serif" font-weight="400" font-size="73" transform="matrix(-1.83697e-16 -1 1 -1.83697e-16 1306.43 1058)">640</text><rect x="1401.5" y="819.5" width="94.9999" height="361" stroke="#172C51" stroke-width="4.58333" stroke-miterlimit="8" fill="#5A9BD2"/><text fill="#FFFFFF" font-family="Times New Roman,Times New Roman_MSFontService,sans-serif" font-weight="400" font-size="73" transform="matrix(-1.83697e-16 -1 1 -1.83697e-16 1472.82 1058)">320</text><path d="M1000 984.25 1032.5 984.25 1032.5 969 1063 999.5 1032.5 1030 1032.5 1014.75 1000 1014.75Z" fill="#91CD4B" fill-rule="evenodd"/><path d="M1168 984.25 1200.5 984.25 1200.5 969 1231 999.5 1200.5 1030 1200.5 1014.75 1168 1014.75Z" fill="#91CD4B" fill-rule="evenodd"/><path d="M0 10.5001 27 10.5001 27 0 48.0001 21.0001 27 42.0002 27 31.5002 0 31.5002Z" fill="#91CD4B" fill-rule="evenodd" transform="matrix(-1.83697e-16 -1 -1 1.83697e-16 1825 1121)"/><rect x="0" y="0" width="21" height="110" fill="#91CD4B" transform="matrix(6.12323e-17 1 1 -6.12323e-17 1704 1107)"/><text font-family="Times New Roman,Times New Roman_MSFontService,sans-serif" font-weight="700" font-size="73" transform="matrix(1 0 0 1 2113.85 1140)">Decoder</text><path d="M2534 1234.83C2534 1222.78 2543.78 1213 2555.83 1213L2643.17 1213C2655.23 1213 2665 1222.78 2665 1234.83L2665 1333.17C2665 1345.22 2655.23 1355 2643.17 1355L2555.83 1355C2543.78 1355 2534 1345.22 2534 1333.17Z" fill="#EBEBEB" fill-rule="evenodd"/><path d="M2577.9 1255.78 2593.59 1255.78 2593.14 1257.77C2592.01 1257.88 2591.14 1258.21 2590.55 1258.76 2589.95 1259.32 2589.66 1260.17 2589.66 1261.34 2589.66 1262.98 2590.03 1265.15 2590.79 1267.82L2595.09 1283.1 2605.06 1269.77C2607.08 1267.06 2608.41 1265.06 2609.05 1263.75 2609.68 1262.44 2610 1261.28 2610 1260.28 2610 1259.53 2609.74 1258.94 2609.23 1258.54 2608.72 1258.13 2607.98 1257.88 2607 1257.77L2607.45 1255.78 2622.65 1255.78 2622.2 1257.77C2621.55 1257.9 2620.99 1258.1 2620.52 1258.36 2620.05 1258.61 2619.51 1259.03 2618.9 1259.59 2618.29 1260.16 2617.47 1261.07 2616.43 1262.33 2615.38 1263.59 2614.05 1265.27 2612.43 1267.37L2596.67 1287.84 2594.16 1299.31C2593.91 1300.39 2593.74 1301.23 2593.65 1301.84 2593.55 1302.45 2593.47 1303.1 2593.41 1303.79 2593.34 1304.48 2593.3 1305.09 2593.3 1305.63 2593.3 1306.47 2593.44 1307.12 2593.71 1307.6 2593.98 1308.07 2594.39 1308.42 2594.93 1308.63 2595.47 1308.85 2596.4 1309.01 2597.72 1309.12L2597.28 1311.1 2580.21 1311.1 2580.66 1309.12C2581.74 1308.96 2582.54 1308.74 2583.05 1308.47 2583.56 1308.2 2584.02 1307.78 2584.41 1307.21 2584.8 1306.65 2585.19 1305.75 2585.58 1304.54 2585.98 1303.32 2586.44 1301.48 2586.98 1299.03L2589.37 1287.84 2583.5 1267.37C2582.6 1264.24 2581.9 1262.12 2581.39 1261.01 2580.88 1259.9 2580.33 1259.12 2579.75 1258.66 2579.17 1258.2 2578.4 1257.9 2577.46 1257.77Z" fill-rule="evenodd"/><text fill="#000000" fill-opacity="0" font-family="Arial,Arial_MSFontService,sans-serif" font-size="55.3198" x="2577.46" y="1304.19">ğ‘Œ</text><path d="M2598.95 1239.52 2604.38 1239.52 2618.56 1249.78 2616.98 1252.09 2602.11 1244.75 2601.66 1244.75 2586.47 1252.09 2584.89 1249.78Z" fill-rule="evenodd"/><text fill="#000000" fill-opacity="0" font-family="Arial,Arial_MSFontService,sans-serif" font-size="12.5635" x="2584.89" y="1250.52">à· </text><path d="M3516 1235C3516 1222.85 3525.85 1213 3538 1213L3626 1213C3638.15 1213 3648 1222.85 3648 1235L3648 1333C3648 1345.15 3638.15 1355 3626 1355L3538 1355C3525.85 1355 3516 1345.15 3516 1333Z" fill="#EBEBEB" fill-rule="evenodd"/><path d="M3567.54 1255.44 3583.92 1255.44 3583.47 1257.42C3582.31 1257.61 3581.38 1258.01 3580.69 1258.62 3580 1259.23 3579.66 1260.11 3579.66 1261.27 3579.66 1263 3580.11 1265.18 3581 1267.8L3584.36 1277.61 3591.86 1268.12C3593.02 1266.66 3593.93 1265.47 3594.57 1264.54 3595.22 1263.6 3595.69 1262.78 3595.97 1262.06 3596.26 1261.35 3596.4 1260.72 3596.4 1260.18 3596.4 1259.45 3596.18 1258.83 3595.75 1258.31 3595.32 1257.8 3594.57 1257.5 3593.52 1257.42L3593.97 1255.44 3609.08 1255.44 3608.64 1257.42C3607.83 1257.67 3607.06 1258.06 3606.35 1258.6 3605.63 1259.14 3604.78 1259.95 3603.79 1261.03 3602.81 1262.11 3600.98 1264.25 3598.3 1267.43L3586.23 1281.86 3592.14 1298.32C3593.03 1300.8 3593.76 1302.7 3594.33 1304.01 3594.9 1305.32 3595.4 1306.29 3595.83 1306.91 3596.18 1307.37 3596.55 1307.72 3596.92 1307.98 3597.3 1308.24 3597.94 1308.5 3598.83 1308.77L3598.42 1310.76 3582.05 1310.76 3582.46 1308.77C3583.7 1308.58 3584.65 1308.16 3585.31 1307.49 3585.98 1306.83 3586.31 1305.98 3586.31 1304.92 3586.31 1303.33 3585.98 1301.56 3585.33 1299.61L3581.12 1287.25 3571.88 1298.8C3570.5 1300.53 3569.5 1301.94 3568.88 1303.04 3568.26 1304.13 3567.95 1305.07 3567.95 1305.85 3567.95 1306.91 3568.2 1307.63 3568.7 1308.02 3569.2 1308.41 3569.91 1308.66 3570.82 1308.77L3570.38 1310.76 3555.3 1310.76 3555.71 1308.77C3556.55 1308.5 3557.31 1308.11 3558 1307.6 3558.69 1307.08 3559.58 1306.21 3560.67 1304.98 3561.77 1303.75 3563.68 1301.52 3566.41 1298.27L3579.25 1283 3573.26 1266.34C3572.26 1263.56 3571.47 1261.63 3570.91 1260.56 3570.34 1259.5 3569.78 1258.75 3569.22 1258.31 3568.67 1257.88 3567.96 1257.59 3567.1 1257.42Z" fill-rule="evenodd"/><text fill="#000000" fill-opacity="0" font-family="Arial,Arial_MSFontService,sans-serif" font-size="55.3198" x="3555.3" y="1303.84">ğ‘‹</text><path d="M3587.5 1239.18 3592.93 1239.18 3607.11 1249.43 3605.53 1251.74 3590.66 1244.41 3590.21 1244.41 3575.01 1251.74 3573.43 1249.43Z" fill-rule="evenodd"/><text fill="#000000" fill-opacity="0" font-family="Arial,Arial_MSFontService,sans-serif" font-size="12.5635" x="3573.43" y="1250.17">à· </text><path d="M3630.75 1292.03C3628.99 1292.03 3627.4 1292.44 3625.99 1293.27 3624.57 1294.09 3623.31 1295.18 3622.22 1296.55 3621.13 1297.91 3620.18 1299.47 3619.39 1301.22 3618.6 1302.97 3617.95 1304.75 3617.43 1306.58 3616.91 1308.41 3616.54 1310.2 3616.3 1311.96 3616.07 1313.71 3615.95 1315.31 3615.95 1316.73 3615.95 1319.56 3616.51 1321.68 3617.64 1323.07 3618.76 1324.47 3620.47 1325.17 3622.78 1325.17 3624.42 1325.17 3625.92 1324.78 3627.29 1324.01 3628.66 1323.24 3629.89 1322.21 3630.98 1320.91 3632.07 1319.61 3633.03 1318.11 3633.85 1316.42 3634.67 1314.73 3635.36 1312.98 3635.9 1311.15 3636.45 1309.32 3636.86 1307.49 3637.15 1305.66 3637.43 1303.82 3637.57 1302.12 3637.57 1300.56 3637.57 1297.79 3637.01 1295.67 3635.87 1294.22 3634.74 1292.76 3633.03 1292.03 3630.75 1292.03ZM3630.92 1289.05C3632.99 1289.05 3634.82 1289.35 3636.4 1289.97 3637.98 1290.58 3639.3 1291.45 3640.36 1292.56 3641.41 1293.68 3642.21 1295.02 3642.74 1296.59 3643.28 1298.16 3643.55 1299.93 3643.55 1301.88 3643.55 1303.44 3643.39 1305.17 3643.08 1307.08 3642.77 1308.98 3642.27 1310.91 3641.6 1312.86 3640.93 1314.82 3640.04 1316.72 3638.93 1318.56 3637.83 1320.41 3636.51 1322.05 3634.96 1323.48 3633.42 1324.92 3631.62 1326.07 3629.57 1326.94 3627.52 1327.81 3625.19 1328.25 3622.57 1328.25 3620.6 1328.25 3618.83 1327.96 3617.27 1327.4 3615.71 1326.83 3614.38 1326 3613.29 1324.91 3612.19 1323.81 3611.35 1322.46 3610.77 1320.86 3610.18 1319.26 3609.89 1317.44 3609.89 1315.41 3609.89 1313.71 3610.05 1311.89 3610.38 1309.94 3610.72 1307.98 3611.23 1306.03 3611.94 1304.08 3612.64 1302.12 3613.55 1300.24 3614.66 1298.44 3615.78 1296.63 3617.11 1295.03 3618.68 1293.65 3620.24 1292.26 3622.04 1291.15 3624.07 1290.31 3626.1 1289.47 3628.38 1289.05 3630.92 1289.05Z" fill-rule="evenodd"/><text fill="#000000" fill-opacity="0" font-family="Arial,Arial_MSFontService,sans-serif" font-size="39.1992" x="3609.89" y="1323.35">ğ‘‚</text><path d="M88 994C88 981.85 97.8499 972 110 972L198 972C210.15 972 220 981.85 220 994L220 1092C220 1104.15 210.15 1114 198 1114L110 1114C97.8499 1114 88 1104.15 88 1092Z" fill="#EBEBEB" fill-rule="evenodd"/><path d="M139.856 1011.91 156.229 1011.91 155.783 1013.9C154.621 1014.09 153.696 1014.48 153.007 1015.09 152.318 1015.7 151.973 1016.58 151.973 1017.75 151.973 1019.48 152.419 1021.65 153.311 1024.27L156.675 1034.08 164.172 1024.6C165.334 1023.14 166.239 1021.94 166.887 1021.01 167.536 1020.08 168.002 1019.25 168.286 1018.54 168.569 1017.82 168.711 1017.19 168.711 1016.65 168.711 1015.92 168.495 1015.3 168.063 1014.79 167.63 1014.27 166.887 1013.98 165.834 1013.9L166.28 1011.91 181.396 1011.91 180.95 1013.9C180.14 1014.14 179.377 1014.53 178.661 1015.07 177.945 1015.61 177.094 1016.42 176.107 1017.5 175.121 1018.58 173.291 1020.72 170.616 1023.91L158.539 1038.33 164.456 1054.79C165.347 1057.27 166.077 1059.17 166.644 1060.48 167.212 1061.79 167.712 1062.76 168.144 1063.38 168.495 1063.84 168.86 1064.2 169.238 1064.45 169.616 1064.71 170.251 1064.97 171.143 1065.24L170.738 1067.23 154.365 1067.23 154.77 1065.24C156.013 1065.06 156.965 1064.63 157.627 1063.97 158.289 1063.31 158.62 1062.45 158.62 1061.39 158.62 1059.8 158.296 1058.03 157.647 1056.09L153.432 1043.72 144.192 1055.27C142.814 1057 141.815 1058.42 141.193 1059.51 140.572 1060.6 140.261 1061.54 140.261 1062.33 140.261 1063.38 140.511 1064.1 141.011 1064.49 141.511 1064.89 142.22 1065.14 143.138 1065.24L142.693 1067.23 127.617 1067.23 128.022 1065.24C128.859 1064.97 129.623 1064.58 130.312 1064.07 131.001 1063.56 131.892 1062.68 132.986 1061.46 134.081 1060.23 135.992 1057.99 138.721 1054.75L151.568 1039.47 145.57 1022.81C144.57 1020.03 143.787 1018.1 143.22 1017.04 142.652 1015.97 142.092 1015.22 141.538 1014.79 140.984 1014.36 140.275 1014.06 139.41 1013.9Z" fill-rule="evenodd"/><text fill="#000000" fill-opacity="0" font-family="Arial,Arial_MSFontService,sans-serif" font-size="55.3198" x="127.617" y="1060.32">ğ‘‹</text><path d="M203.06 1048.51C201.302 1048.51 199.715 1048.92 198.299 1049.74 196.883 1050.56 195.628 1051.65 194.534 1053.02 193.44 1054.39 192.498 1055.94 191.707 1057.69 190.916 1059.44 190.262 1061.23 189.744 1063.05 189.227 1064.88 188.851 1066.67 188.616 1068.43 188.382 1070.19 188.265 1071.78 188.265 1073.2 188.265 1076.04 188.826 1078.15 189.949 1079.55 191.072 1080.94 192.786 1081.64 195.091 1081.64 196.732 1081.64 198.235 1081.26 199.603 1080.49 200.97 1079.71 202.2 1078.68 203.294 1077.38 204.388 1076.08 205.345 1074.59 206.165 1072.9 206.985 1071.21 207.669 1069.45 208.216 1067.62 208.763 1065.8 209.178 1063.97 209.461 1062.13 209.744 1060.29 209.886 1058.6 209.886 1057.03 209.886 1054.26 209.319 1052.15 208.187 1050.69 207.054 1049.24 205.345 1048.51 203.06 1048.51ZM203.235 1045.52C205.306 1045.52 207.132 1045.83 208.714 1046.44 210.296 1047.06 211.614 1047.92 212.669 1049.03 213.724 1050.15 214.52 1051.49 215.057 1053.06 215.594 1054.64 215.862 1056.4 215.862 1058.35 215.862 1059.91 215.706 1061.65 215.394 1063.55 215.081 1065.46 214.588 1067.38 213.914 1069.34 213.24 1071.29 212.352 1073.19 211.248 1075.04 210.145 1076.88 208.821 1078.52 207.278 1079.96 205.735 1081.39 203.939 1082.55 201.888 1083.41 199.837 1084.28 197.503 1084.72 194.886 1084.72 192.913 1084.72 191.146 1084.44 189.583 1083.87 188.021 1083.3 186.692 1082.47 185.599 1081.38 184.505 1080.28 183.665 1078.94 183.079 1077.34 182.493 1075.73 182.2 1073.92 182.2 1071.89 182.2 1070.19 182.366 1068.36 182.698 1066.41 183.03 1064.45 183.548 1062.5 184.251 1060.55 184.954 1058.6 185.862 1056.72 186.976 1054.91 188.089 1053.1 189.427 1051.51 190.989 1050.12 192.552 1048.73 194.349 1047.62 196.38 1046.78 198.411 1045.94 200.696 1045.52 203.235 1045.52Z" fill-rule="evenodd"/><text fill="#000000" fill-opacity="0" font-family="Arial,Arial_MSFontService,sans-serif" font-size="39.1992" x="182.2" y="1079.82">ğ‘‚</text><path d="M88 841.001C88 828.85 97.8499 819 110 819L198 819C210.15 819 220 828.85 220 841.001L220 938C220 950.15 210.15 960 198 960L110 960C97.8499 960 88 950.15 88 938Z" fill="#EBEBEB" fill-rule="evenodd"/><path d="M128.968 858.085 146.233 858.085 146.233 860.071C143.693 860.368 142.423 861.462 142.423 863.353 142.423 864.137 142.605 865.015 142.97 865.988 143.335 866.96 143.99 868.338 144.936 870.121L153.041 885.562 161.025 871.459C162.106 869.54 162.869 867.967 163.315 866.737 163.761 865.508 163.984 864.38 163.984 863.353 163.984 862.381 163.693 861.617 163.112 861.063 162.531 860.51 161.673 860.179 160.539 860.071L160.539 858.085 175.899 858.085 175.899 860.071C174.791 860.476 173.818 861.036 172.981 861.752 172.143 862.468 171.292 863.434 170.427 864.65 169.563 865.866 168.293 867.919 166.618 870.81L155.351 890.02 155.351 903.151C155.351 904.691 155.432 905.934 155.594 906.88 155.756 907.825 156.027 908.582 156.405 909.149 156.783 909.717 157.283 910.162 157.904 910.487 158.526 910.811 159.499 911.122 160.822 911.419L160.822 913.405 142.301 913.405 142.301 911.419C143.598 911.148 144.557 910.858 145.179 910.547 145.8 910.237 146.3 909.791 146.678 909.21 147.057 908.629 147.334 907.866 147.509 906.92 147.685 905.975 147.773 904.718 147.773 903.151L147.773 890.182 136.587 869.392C135.236 866.879 134.209 865.082 133.507 864.002 132.805 862.921 132.102 862.07 131.4 861.448 130.697 860.827 129.887 860.368 128.968 860.071Z" fill-rule="evenodd"/><text fill="#000000" fill-opacity="0" font-family="Arial,Arial_MSFontService,sans-serif" font-size="55.3198" x="128.968" y="906.49">Y</text><path d="M220 882.125 832.17 882.125 832.17 895.875 220 895.875ZM825.295 868.375 866.545 889 825.295 909.625Z" fill="#91CD4B"/><path d="M2731.5 1064.17C2731.5 1020.72 2766.72 985.5 2810.17 985.5L3354.83 985.5C3398.28 985.5 3433.5 1020.72 3433.5 1064.17L3433.5 1378.83C3433.5 1422.28 3398.28 1457.5 3354.83 1457.5L2810.17 1457.5C2766.72 1457.5 2731.5 1422.28 2731.5 1378.83Z" stroke="#000000" stroke-width="4.58333" stroke-linecap="square" stroke-miterlimit="8" stroke-dasharray="13.75 4.58333" fill="#EBEBEB" fill-rule="evenodd"/><text font-family="Times New Roman,Times New Roman_MSFontService,sans-serif" font-weight="700" font-size="64" transform="matrix(1 0 0 1 2890.64 1057)">Output Proxy</text><text font-family="Times New Roman,Times New Roman_MSFontService,sans-serif" font-weight="700" font-size="64" transform="matrix(1 0 0 1 2759.47 1134)">(</text><text font-family="Times New Roman,Times New Roman_MSFontService,sans-serif" font-weight="700" font-size="64" transform="matrix(1 0 0 1 2780.67 1134)">forward ASM</text><text font-family="Times New Roman,Times New Roman_MSFontService,sans-serif" font-weight="700" font-size="64" transform="matrix(1 0 0 1 3160.42 1134)">-</text><text font-family="Times New Roman,Times New Roman_MSFontService,sans-serif" font-weight="700" font-size="64" transform="matrix(1 0 0 1 3181.62 1134)">HEMT)</text><rect x="2845.5" y="1159.5" width="93.9998" height="248" stroke="#172C51" stroke-width="4.58333" stroke-miterlimit="8" fill="#5A9BD2"/><text fill="#FFFFFF" font-family="Times New Roman,Times New Roman_MSFontService,sans-serif" font-weight="400" font-size="73" transform="matrix(-1.83697e-16 -1 1 -1.83697e-16 2916.55 1338)">512</text><path d="M2942 1263.25 2974.5 1263.25 2974.5 1248 3005 1278.5 2974.5 1309 2974.5 1293.75 2942 1293.75Z" fill="#91CD4B" fill-rule="evenodd"/><rect x="3008.5" y="1162.5" width="93.9998" height="248" stroke="#172C51" stroke-width="4.58333" stroke-miterlimit="8" fill="#5A9BD2"/><text fill="#FFFFFF" font-family="Times New Roman,Times New Roman_MSFontService,sans-serif" font-weight="400" font-size="73" transform="matrix(-1.83697e-16 -1 1 -1.83697e-16 3079.54 1341)">384</text><path d="M3105 1266.25 3137.5 1266.25 3137.5 1251 3168 1281.5 3137.5 1312 3137.5 1296.75 3105 1296.75Z" fill="#91CD4B" fill-rule="evenodd"/><rect x="3170.5" y="1162.5" width="95.0002" height="245" stroke="#172C51" stroke-width="4.58333" stroke-miterlimit="8" fill="#5A9BD2"/><text fill="#FFFFFF" font-family="Times New Roman,Times New Roman_MSFontService,sans-serif" font-weight="400" font-size="73" transform="matrix(-1.83697e-16 -1 1 -1.83697e-16 3241.89 1340)">256</text><path d="M0.0449717-6.87485 115.071-6.12241 114.981 7.62729-0.0449717 6.87485ZM108.286-19.9171 149.4 0.977297 108.016 21.332Z" fill="#91CD4B" transform="matrix(1 0 0 -1 2665 1283.98)"/><path d="M0.0244248-6.87496 186.387-6.21286 186.338 7.53705-0.0244248 6.87496ZM179.561-19.9872 220.737 0.784219 179.414 21.2625Z" fill="#91CD4B" transform="matrix(1 0 0 -1 3295 1284.78)"/><path d="M2534 1724.83C2534 1712.78 2543.78 1703 2555.83 1703L2643.17 1703C2655.22 1703 2665 1712.78 2665 1724.83L2665 1822.17C2665 1834.22 2655.22 1844 2643.17 1844L2555.83 1844C2543.78 1844 2534 1834.22 2534 1822.17Z" fill="#EBEBEB" fill-rule="evenodd"/><path d="M2577.9 1744.94 2593.59 1744.94 2593.14 1746.93C2592.01 1747.04 2591.14 1747.37 2590.55 1747.92 2589.95 1748.48 2589.66 1749.33 2589.66 1750.5 2589.66 1752.14 2590.03 1754.31 2590.79 1756.98L2595.09 1772.26 2605.06 1758.93C2607.08 1756.22 2608.41 1754.22 2609.05 1752.91 2609.68 1751.6 2610 1750.44 2610 1749.44 2610 1748.69 2609.74 1748.1 2609.23 1747.7 2608.72 1747.29 2607.98 1747.04 2607 1746.93L2607.45 1744.94 2622.65 1744.94 2622.2 1746.93C2621.55 1747.06 2620.99 1747.26 2620.52 1747.52 2620.05 1747.77 2619.51 1748.19 2618.9 1748.75 2618.29 1749.32 2617.47 1750.23 2616.43 1751.49 2615.38 1752.75 2614.05 1754.43 2612.43 1756.53L2596.67 1777 2594.16 1788.47C2593.91 1789.55 2593.74 1790.4 2593.65 1791 2593.55 1791.61 2593.47 1792.26 2593.41 1792.95 2593.34 1793.64 2593.3 1794.25 2593.3 1794.79 2593.3 1795.63 2593.44 1796.29 2593.71 1796.76 2593.98 1797.23 2594.39 1797.58 2594.93 1797.79 2595.47 1798.01 2596.4 1798.17 2597.72 1798.28L2597.28 1800.26 2580.21 1800.26 2580.66 1798.28C2581.74 1798.12 2582.54 1797.9 2583.05 1797.63 2583.56 1797.36 2584.02 1796.94 2584.41 1796.37 2584.8 1795.81 2585.19 1794.91 2585.58 1793.7 2585.98 1792.48 2586.44 1790.64 2586.98 1788.19L2589.37 1777 2583.5 1756.53C2582.6 1753.4 2581.9 1751.28 2581.39 1750.17 2580.88 1749.06 2580.33 1748.28 2579.75 1747.82 2579.17 1747.36 2578.4 1747.06 2577.46 1746.93Z" fill-rule="evenodd"/><text fill="#000000" fill-opacity="0" font-family="Arial,Arial_MSFontService,sans-serif" font-size="55.3198" x="2577.46" y="1793.35">ğ‘Œ</text><path d="M2598.95 1728.68 2604.38 1728.68 2618.56 1738.94 2616.98 1741.25 2602.11 1733.91 2601.66 1733.91 2586.47 1741.25 2584.89 1738.94Z" fill-rule="evenodd"/><text fill="#000000" fill-opacity="0" font-family="Arial,Arial_MSFontService,sans-serif" font-size="12.5635" x="2584.89" y="1739.68">à· </text><path d="M2448.18 1764.13 2448.2 1764.13C2451.99 1764.23 2454.99 1767.39 2454.89 1771.18 2454.78 1774.98 2451.63 1777.97 2447.83 1777.87L2447.82 1777.87C2444.02 1777.77 2441.03 1774.61 2441.13 1770.82 2441.23 1767.02 2444.39 1764.03 2448.18 1764.13ZM2475.69 1764.86 2475.7 1764.86C2479.5 1764.96 2482.49 1768.12 2482.39 1771.92 2482.29 1775.71 2479.13 1778.71 2475.33 1778.61L2475.32 1778.61C2471.52 1778.5 2468.53 1775.35 2468.63 1771.55 2468.73 1767.75 2471.89 1764.76 2475.69 1764.86ZM2492.49 1751.55 2533.17 1773.27 2491.39 1792.79Z" fill="#EB7D2D"/><text font-family="Times New Roman,Times New Roman_MSFontService,sans-serif" font-weight="700" font-size="73" transform="matrix(1 0 0 1 3334.98 880)">Inference</text><text font-family="Times New Roman,Times New Roman_MSFontService,sans-serif" font-weight="700" font-size="73" transform="matrix(1 0 0 1 3334.98 763)">Training</text><path d="M3143 730.125 3253 730.125 3253 743.875 3143 743.875ZM3246.12 716.375 3287.38 737 3246.12 757.625Z" fill="#91CD4B"/><path d="M3143 847.125 3143.01 847.125C3146.81 847.125 3149.89 850.203 3149.89 854 3149.89 857.797 3146.81 860.875 3143.01 860.875L3143 860.875C3139.2 860.875 3136.12 857.797 3136.12 854 3136.12 850.203 3139.2 847.125 3143 847.125ZM3170.51 847.125 3170.53 847.125C3174.32 847.125 3177.4 850.203 3177.4 854 3177.4 857.797 3174.32 860.875 3170.53 860.875L3170.51 860.875C3166.72 860.875 3163.64 857.797 3163.64 854 3163.64 850.203 3166.72 847.125 3170.51 847.125ZM3198.03 847.125 3198.04 847.125C3201.84 847.125 3204.92 850.203 3204.92 854 3204.92 857.797 3201.84 860.875 3198.04 860.875L3198.03 860.875C3194.23 860.875 3191.15 857.797 3191.15 854 3191.15 850.203 3194.23 847.125 3198.03 847.125ZM3225.54 847.125 3225.55 847.125C3229.35 847.125 3232.43 850.203 3232.43 854 3232.43 857.797 3229.35 860.875 3225.55 860.875L3225.54 860.875C3221.74 860.875 3218.67 857.797 3218.67 854 3218.67 850.203 3221.74 847.125 3225.54 847.125ZM3246.12 833.375 3287.38 854 3246.12 874.625Z" fill="#EB7D2D"/><path d="M2438 1277.12 2498.78 1277.13 2498.78 1290.88 2438 1290.87ZM2491.9 1263.38 2533.15 1284 2491.9 1304.63Z" fill="#91CD4B"/><path d="M3516 1755C3516 1742.85 3525.85 1733 3538 1733L3626 1733C3638.15 1733 3648 1742.85 3648 1755L3648 1853C3648 1865.15 3638.15 1875 3626 1875L3538 1875C3525.85 1875 3516 1865.15 3516 1853Z" fill="#EBEBEB" fill-rule="evenodd"/><path d="M3567.4 1775.75 3583.78 1775.75 3583.33 1777.73C3582.17 1777.92 3581.24 1778.32 3580.56 1778.93 3579.87 1779.54 3579.52 1780.42 3579.52 1781.58 3579.52 1783.31 3579.97 1785.49 3580.86 1788.11L3584.22 1797.92 3591.72 1788.43C3592.88 1786.97 3593.79 1785.78 3594.44 1784.85 3595.08 1783.91 3595.55 1783.09 3595.83 1782.37 3596.12 1781.66 3596.26 1781.03 3596.26 1780.49 3596.26 1779.76 3596.04 1779.14 3595.61 1778.62 3595.18 1778.11 3594.44 1777.81 3593.38 1777.73L3593.83 1775.75 3608.95 1775.75 3608.5 1777.73C3607.69 1777.98 3606.93 1778.37 3606.21 1778.91 3605.49 1779.45 3604.64 1780.26 3603.66 1781.34 3602.67 1782.42 3600.84 1784.56 3598.17 1787.74L3586.09 1802.17 3592 1818.63C3592.9 1821.11 3593.63 1823.01 3594.19 1824.32 3594.76 1825.63 3595.26 1826.6 3595.69 1827.22 3596.04 1827.68 3596.41 1828.03 3596.79 1828.29 3597.17 1828.55 3597.8 1828.81 3598.69 1829.08L3598.29 1831.07 3581.91 1831.07 3582.32 1829.08C3583.56 1828.89 3584.51 1828.47 3585.18 1827.8 3585.84 1827.14 3586.17 1826.29 3586.17 1825.23 3586.17 1823.64 3585.84 1821.87 3585.2 1819.92L3580.98 1807.56 3571.74 1819.11C3570.36 1820.84 3569.36 1822.25 3568.74 1823.35 3568.12 1824.44 3567.81 1825.38 3567.81 1826.16 3567.81 1827.22 3568.06 1827.94 3568.56 1828.33 3569.06 1828.72 3569.77 1828.97 3570.69 1829.08L3570.24 1831.07 3555.17 1831.07 3555.57 1829.08C3556.41 1828.81 3557.17 1828.42 3557.86 1827.91 3558.55 1827.39 3559.44 1826.52 3560.54 1825.29 3561.63 1824.06 3563.54 1821.83 3566.27 1818.58L3579.12 1803.31 3573.12 1786.65C3572.12 1783.87 3571.34 1781.94 3570.77 1780.87 3570.2 1779.81 3569.64 1779.06 3569.09 1778.62 3568.53 1778.19 3567.82 1777.9 3566.96 1777.73Z" fill-rule="evenodd"/><text fill="#000000" fill-opacity="0" font-family="Arial,Arial_MSFontService,sans-serif" font-size="55.3198" x="3555.17" y="1824.15">ğ‘‹</text><path d="M3587.36 1759.49 3592.79 1759.49 3606.97 1769.74 3605.39 1772.05 3590.52 1764.72 3590.07 1764.72 3574.88 1772.05 3573.3 1769.74Z" fill-rule="evenodd"/><text fill="#000000" fill-opacity="0" font-family="Arial,Arial_MSFontService,sans-serif" font-size="12.5635" x="3573.3" y="1770.48">à· </text><path d="M3607.76 1807.92 3642.56 1807.92 3642.56 1818.73 3639.25 1818.73C3638.84 1817.21 3638.45 1815.96 3638.06 1815 3637.68 1814.03 3637.24 1813.27 3636.73 1812.71 3636.22 1812.15 3635.62 1811.77 3634.92 1811.55 3634.21 1811.34 3633.33 1811.21 3632.28 1811.17L3628.29 1811.17 3628.29 1840.38C3628.31 1841.36 3628.36 1842.16 3628.44 1842.8 3628.52 1843.43 3628.7 1843.96 3628.98 1844.37 3629.27 1844.78 3629.69 1845.1 3630.26 1845.35 3630.82 1845.59 3631.61 1845.82 3632.63 1846.04L3632.63 1847.91 3617.69 1847.91 3617.69 1846.04C3618.45 1845.9 3619.1 1845.75 3619.64 1845.6 3620.17 1845.44 3620.62 1845.18 3620.97 1844.82 3621.32 1844.46 3621.58 1843.93 3621.75 1843.24 3621.91 1842.54 3622 1841.59 3622 1840.38L3622 1811.17 3618.04 1811.17C3617.47 1811.17 3616.98 1811.2 3616.56 1811.25 3616.14 1811.29 3615.76 1811.38 3615.43 1811.5 3615.1 1811.61 3614.8 1811.76 3614.52 1811.95 3614.25 1812.13 3613.99 1812.35 3613.73 1812.61 3613.25 1813.08 3612.79 1813.78 3612.36 1814.7 3611.93 1815.63 3611.52 1816.97 3611.13 1818.73L3607.76 1818.73Z" fill-rule="evenodd"/><text fill="#000000" fill-opacity="0" font-family="Arial,Arial_MSFontService,sans-serif" font-size="39.9902" x="3607.76" y="1842.91">T</text><path d="M2731.5 1585C2731.5 1541.65 2766.65 1506.5 2810 1506.5L3355 1506.5C3398.35 1506.5 3433.5 1541.65 3433.5 1585L3433.5 1899C3433.5 1942.35 3398.35 1977.5 3355 1977.5L2810 1977.5C2766.65 1977.5 2731.5 1942.35 2731.5 1899Z" stroke="#000000" stroke-width="4.58333" stroke-linecap="square" stroke-miterlimit="8" stroke-dasharray="13.75 4.58333" fill="#EBEBEB" fill-rule="evenodd"/><rect x="2845.5" y="1680.5" width="93.9998" height="247" stroke="#172C51" stroke-width="4.58333" stroke-miterlimit="8" fill="#5A9BD2"/><text fill="#FFFFFF" font-family="Times New Roman,Times New Roman_MSFontService,sans-serif" font-weight="400" font-size="73" transform="matrix(-1.83697e-16 -1 1 -1.83697e-16 2916.55 1859)">512</text><path d="M2942 1783.5 2974 1783.5 2974 1768 3005 1799 2974 1830 2974 1814.5 2942 1814.5Z" fill="#91CD4B" fill-rule="evenodd"/><rect x="3008.5" y="1683.5" width="93.9998" height="247" stroke="#172C51" stroke-width="4.58333" stroke-miterlimit="8" fill="#5A9BD2"/><text fill="#FFFFFF" font-family="Times New Roman,Times New Roman_MSFontService,sans-serif" font-weight="400" font-size="73" transform="matrix(-1.83697e-16 -1 1 -1.83697e-16 3079.54 1861)">384</text><path d="M3105 1786.5 3137 1786.5 3137 1771 3168 1802 3137 1833 3137 1817.5 3105 1817.5Z" fill="#91CD4B" fill-rule="evenodd"/><rect x="3170.5" y="1683.5" width="95.0002" height="244" stroke="#172C51" stroke-width="4.58333" stroke-miterlimit="8" fill="#5A9BD2"/><text fill="#FFFFFF" font-family="Times New Roman,Times New Roman_MSFontService,sans-serif" font-weight="400" font-size="73" transform="matrix(-1.83697e-16 -1 1 -1.83697e-16 3241.89 1860)">256</text><path d="M0.0244248-6.87496 186.387-6.21286 186.338 7.53705-0.0244248 6.87496ZM179.561-19.9872 220.737 0.784219 179.414 21.2625Z" fill="#91CD4B" transform="matrix(1 0 0 -1 3295 1804.78)"/><text font-family="Times New Roman,Times New Roman_MSFontService,sans-serif" font-weight="700" font-size="64" transform="matrix(1 0 0 1 2871.55 1572)">Transfer Proxy</text><text font-family="Times New Roman,Times New Roman_MSFontService,sans-serif" font-weight="700" font-size="64" transform="matrix(1 0 0 1 2759.47 1649)">(</text><text font-family="Times New Roman,Times New Roman_MSFontService,sans-serif" font-weight="700" font-size="64" transform="matrix(1 0 0 1 2780.67 1649)">forward ASM</text><text font-family="Times New Roman,Times New Roman_MSFontService,sans-serif" font-weight="700" font-size="64" transform="matrix(1 0 0 1 3160.42 1649)">-</text><text font-family="Times New Roman,Times New Roman_MSFontService,sans-serif" font-weight="700" font-size="64" transform="matrix(1 0 0 1 3181.62 1649)">HEMT)</text><path d="M0-6.875 531.719-6.875 531.719 77.1849 517.969 77.1849 517.969 0 524.844 6.875 0 6.875ZM545.469 70.3099 524.844 111.56 504.219 70.3099Z" fill="#91CD4B" transform="matrix(1.83697e-16 1 1 -1.83697e-16 2703 1279)"/><rect x="334.5" y="980.5" width="234" height="120" stroke="#172C51" stroke-width="4.58333" stroke-miterlimit="8" fill="#FFF0CD"/><text font-family="Times New Roman,Times New Roman_MSFontService,sans-serif" font-weight="400" font-size="73" transform="matrix(1 0 0 1 374.055 1067)">CNN</text><rect x="333.5" y="1131.5" width="234" height="120" stroke="#172C51" stroke-width="4.58333" stroke-miterlimit="8" fill="#FFF0CD"/><text font-family="Times New Roman,Times New Roman_MSFontService,sans-serif" font-weight="400" font-size="73" transform="matrix(1 0 0 1 373.351 1218)">CNN</text><path d="M90.0001 1144.83C90.0001 1132.78 99.7754 1123 111.834 1123L199.167 1123C211.225 1123 221 1132.78 221 1144.83L221 1243.17C221 1255.22 211.225 1265 199.167 1265L111.834 1265C99.7754 1265 90.0001 1255.22 90.0001 1243.17Z" fill="#EBEBEB" fill-rule="evenodd"/><path d="M140.968 1162.65 157.341 1162.65 156.895 1164.64C155.734 1164.83 154.808 1165.22 154.119 1165.83 153.43 1166.44 153.086 1167.32 153.086 1168.49 153.086 1170.22 153.532 1172.39 154.423 1175.01L157.787 1184.82 165.285 1175.34C166.446 1173.88 167.352 1172.68 168 1171.75 168.648 1170.82 169.114 1169.99 169.398 1169.28 169.682 1168.56 169.824 1167.93 169.824 1167.39 169.824 1166.66 169.608 1166.04 169.175 1165.53 168.743 1165.01 168 1164.72 166.946 1164.64L167.392 1162.65 182.509 1162.65 182.063 1164.64C181.252 1164.88 180.489 1165.27 179.773 1165.81 179.057 1166.35 178.206 1167.16 177.22 1168.24 176.234 1169.32 174.403 1171.46 171.728 1174.65L159.651 1189.07 165.568 1205.53C166.46 1208.01 167.189 1209.91 167.757 1211.22 168.324 1212.53 168.824 1213.5 169.256 1214.12 169.608 1214.58 169.972 1214.94 170.351 1215.19 170.729 1215.45 171.364 1215.71 172.255 1215.98L171.85 1217.97 155.477 1217.97 155.882 1215.98C157.125 1215.8 158.078 1215.37 158.739 1214.71 159.401 1214.05 159.732 1213.19 159.732 1212.13 159.732 1210.54 159.408 1208.77 158.76 1206.83L154.545 1194.46 145.305 1206.01C143.927 1207.74 142.927 1209.16 142.306 1210.25 141.684 1211.34 141.373 1212.28 141.373 1213.07 141.373 1214.12 141.623 1214.84 142.123 1215.23 142.623 1215.63 143.332 1215.88 144.251 1215.98L143.805 1217.97 128.729 1217.97 129.134 1215.98C129.972 1215.71 130.735 1215.32 131.424 1214.81 132.113 1214.3 133.005 1213.42 134.099 1212.2 135.193 1210.97 137.105 1208.73 139.833 1205.49L152.681 1190.21 146.683 1173.55C145.683 1170.77 144.899 1168.84 144.332 1167.78 143.765 1166.71 143.204 1165.96 142.65 1165.53 142.096 1165.1 141.387 1164.8 140.522 1164.64Z" fill-rule="evenodd"/><text fill="#000000" fill-opacity="0" font-family="Arial,Arial_MSFontService,sans-serif" font-size="55.3198" x="128.729" y="1211.06">ğ‘‹</text><path d="M186.305 1196.82 218.268 1196.82 215.894 1207.16 212.818 1207.16 212.818 1205.49C212.818 1205.18 212.804 1204.82 212.774 1204.42 212.745 1204.02 212.701 1203.62 212.643 1203.22 212.584 1202.82 212.516 1202.45 212.437 1202.1 212.359 1201.76 212.271 1201.48 212.174 1201.27 212.037 1201 211.895 1200.77 211.749 1200.6 211.602 1200.42 211.417 1200.28 211.192 1200.19 210.968 1200.09 210.699 1200.02 210.387 1199.98 210.074 1199.94 209.674 1199.92 209.186 1199.92L204.469 1199.92 198.434 1226.64C198.219 1227.54 198.067 1228.31 197.979 1228.94 197.892 1229.57 197.848 1230.15 197.848 1230.65 197.867 1231.04 197.926 1231.38 198.023 1231.66 198.121 1231.95 198.297 1232.19 198.551 1232.38 198.805 1232.58 199.146 1232.72 199.576 1232.82 200.006 1232.92 200.562 1232.99 201.246 1233.03L200.836 1234.81 187.887 1234.81 188.268 1233.03C188.756 1232.91 189.176 1232.81 189.527 1232.72 189.879 1232.63 190.182 1232.51 190.436 1232.37 190.689 1232.22 190.909 1232.02 191.095 1231.77 191.28 1231.51 191.461 1231.17 191.637 1230.73 191.812 1230.29 191.988 1229.72 192.164 1229.01 192.34 1228.31 192.545 1227.44 192.779 1226.41L198.697 1199.92 194.654 1199.92C194.01 1199.92 193.463 1199.94 193.014 1199.98 192.564 1200.02 192.154 1200.12 191.783 1200.29 191.412 1200.45 191.065 1200.68 190.743 1200.98 190.421 1201.27 190.089 1201.67 189.747 1202.18 189.405 1202.69 189.034 1203.31 188.634 1204.05 188.233 1204.79 187.769 1205.68 187.242 1206.72L184.107 1206.72Z" fill-rule="evenodd"/><text fill="#000000" fill-opacity="0" font-family="Arial,Arial_MSFontService,sans-serif" font-size="37.998" x="184.107" y="1230.06">ğ‘‡</text><path d="M0.0170363-6.87498 63.0737-6.71872 63.0396 7.03123-0.0170363 6.87498ZM56.2328-20.4857 97.4316 0.241437 56.1306 20.7642Z" fill="#91CD4B" transform="matrix(1 0 0 -1 237 1040.24)"/><path d="M0.0171604-6.87498 62.3694-6.71934 62.3351 7.03061-0.0171604 6.87498ZM55.5287-20.4865 96.7271 0.241437 55.4257 20.7634Z" fill="#91CD4B" transform="matrix(1 0 0 -1 237 1191.24)"/><rect x="637.5" y="972.5" width="120" height="286" stroke="#172C51" stroke-width="4.58333" stroke-miterlimit="8" fill="#5A9BD2"/><text fill="#FFFFFF" font-family="Times New Roman,Times New Roman_MSFontService,sans-serif" font-weight="400" font-size="73" transform="matrix(-1.83697e-16 -1 1 -1.83697e-16 724.338 1211)">concat</text><path d="M568.331 1033.13 603.15 1034.81 602.488 1048.54 567.669 1046.87ZM596.944 1020.75 637.154 1043.33 594.959 1061.95Z" fill="#91CD4B"/><path d="M0.0233203-6.87496 36.8255-6.75012 36.7789 6.9998-0.0233203 6.87496ZM29.9972-20.5234 71.177 0.241437 29.8573 20.7264Z" fill="#91CD4B" transform="matrix(1 0 0 -1 567 1190.24)"/><path d="M757 1108.13 831.771 1108.13 831.771 1121.88 757 1121.88ZM824.896 1094.38 866.146 1115 824.896 1135.63Z" fill="#91CD4B"/><path d="M757 1108.13 757.014 1108.13C760.811 1108.13 763.889 1111.2 763.889 1115 763.889 1118.8 760.811 1121.88 757.014 1121.88L757 1121.88C753.203 1121.88 750.125 1118.8 750.125 1115 750.125 1111.2 753.203 1108.13 757 1108.13ZM784.514 1108.13 784.527 1108.13C788.324 1108.13 791.402 1111.2 791.402 1115 791.402 1118.8 788.324 1121.88 784.527 1121.88L784.514 1121.88C780.717 1121.88 777.639 1118.8 777.639 1115 777.639 1111.2 780.717 1108.13 784.514 1108.13ZM801.143 1132.76 801.143 1132.77C801.143 1136.57 798.065 1139.65 794.268 1139.65 790.471 1139.65 787.393 1136.57 787.393 1132.77L787.393 1132.76C787.393 1128.96 790.471 1125.88 794.268 1125.88 798.065 1125.88 801.143 1128.96 801.143 1132.76ZM801.143 1160.27 801.143 1160.29C801.143 1164.08 798.065 1167.16 794.268 1167.16 790.471 1167.16 787.393 1164.08 787.393 1160.29L787.393 1160.27C787.393 1156.48 790.471 1153.4 794.268 1153.4 798.065 1153.4 801.143 1156.48 801.143 1160.27ZM801.143 1187.79 801.143 1187.8C801.143 1191.6 798.065 1194.68 794.268 1194.68 790.471 1194.68 787.393 1191.6 787.393 1187.8L787.393 1187.79C787.393 1183.99 790.471 1180.91 794.268 1180.91 798.065 1180.91 801.143 1183.99 801.143 1187.79ZM801.143 1215.3 801.143 1215.31C801.143 1219.11 798.065 1222.19 794.268 1222.19 790.471 1222.19 787.393 1219.11 787.393 1215.31L787.393 1215.3C787.393 1211.5 790.471 1208.43 794.268 1208.43 798.065 1208.43 801.143 1211.5 801.143 1215.3ZM801.143 1242.81 801.143 1242.83C801.143 1246.63 798.065 1249.7 794.268 1249.7 790.471 1249.7 787.393 1246.63 787.393 1242.83L787.393 1242.81C787.393 1239.02 790.471 1235.94 794.268 1235.94 798.065 1235.94 801.143 1239.02 801.143 1242.81ZM801.143 1270.33 801.143 1270.34C801.143 1274.14 798.065 1277.22 794.268 1277.22 790.471 1277.22 787.393 1274.14 787.393 1270.34L787.393 1270.33C787.393 1266.53 790.471 1263.45 794.268 1263.45 798.065 1263.45 801.143 1266.53 801.143 1270.33ZM801.143 1297.84 801.143 1297.86C801.143 1301.65 798.065 1304.73 794.268 1304.73 790.471 1304.73 787.393 1301.65 787.393 1297.86L787.393 1297.84C787.393 1294.05 790.471 1290.97 794.268 1290.97 798.065 1290.97 801.143 1294.05 801.143 1297.84ZM801.143 1325.36 801.143 1325.37C801.143 1329.17 798.065 1332.24 794.268 1332.24 790.471 1332.24 787.393 1329.17 787.393 1325.37L787.393 1325.36C787.393 1321.56 790.471 1318.48 794.268 1318.48 798.065 1318.48 801.143 1321.56 801.143 1325.36ZM801.143 1352.87 801.143 1352.88C801.143 1356.68 798.065 1359.76 794.268 1359.76 790.471 1359.76 787.393 1356.68 787.393 1352.88L787.393 1352.87C787.393 1349.07 790.471 1345.99 794.268 1345.99 798.065 1345.99 801.143 1349.07 801.143 1352.87ZM801.143 1380.38 801.143 1380.4C801.143 1384.19 798.065 1387.27 794.268 1387.27 790.471 1387.27 787.393 1384.19 787.393 1380.4L787.393 1380.38C787.393 1376.59 790.471 1373.51 794.268 1373.51 798.065 1373.51 801.143 1376.59 801.143 1380.38ZM801.143 1407.9 801.143 1407.91C801.143 1411.71 798.065 1414.79 794.268 1414.79 790.471 1414.79 787.393 1411.71 787.393 1407.91L787.393 1407.9C787.393 1404.1 790.471 1401.02 794.268 1401.02 798.065 1401.02 801.143 1404.1 801.143 1407.9ZM801.143 1435.41 801.143 1435.42C801.143 1439.22 798.065 1442.3 794.268 1442.3 790.471 1442.3 787.393 1439.22 787.393 1435.42L787.393 1435.41C787.393 1431.61 790.471 1428.54 794.268 1428.54 798.065 1428.54 801.143 1431.61 801.143 1435.41ZM801.143 1462.92 801.143 1462.94C801.143 1466.74 798.065 1469.81 794.268 1469.81 790.471 1469.81 787.393 1466.74 787.393 1462.94L787.393 1462.92C787.393 1459.13 790.471 1456.05 794.268 1456.05 798.065 1456.05 801.143 1459.13 801.143 1462.92ZM801.143 1490.44 801.143 1490.45C801.143 1494.25 798.065 1497.33 794.268 1497.33 790.471 1497.33 787.393 1494.25 787.393 1490.45L787.393 1490.44C787.393 1486.64 790.471 1483.56 794.268 1483.56 798.065 1483.56 801.143 1486.64 801.143 1490.44ZM801.143 1517.95 801.143 1517.97C801.143 1521.76 798.065 1524.84 794.268 1524.84 790.471 1524.84 787.393 1521.76 787.393 1517.97L787.393 1517.95C787.393 1514.16 790.471 1511.08 794.268 1511.08 798.065 1511.08 801.143 1514.16 801.143 1517.95ZM801.143 1545.47 801.143 1545.48C801.143 1549.28 798.065 1552.35 794.268 1552.35 790.471 1552.35 787.393 1549.28 787.393 1545.48L787.393 1545.47C787.393 1541.67 790.471 1538.59 794.268 1538.59 798.065 1538.59 801.143 1541.67 801.143 1545.47ZM804.528 1555.84 804.542 1555.84C808.339 1555.84 811.417 1558.92 811.417 1562.72 811.417 1566.52 808.339 1569.59 804.542 1569.59L804.528 1569.59C800.731 1569.59 797.653 1566.52 797.653 1562.72 797.653 1558.92 800.731 1555.84 804.528 1555.84ZM832.042 1555.84 832.056 1555.84C835.853 1555.84 838.931 1558.92 838.931 1562.72 838.931 1566.52 835.853 1569.59 832.056 1569.59L832.042 1569.59C828.245 1569.59 825.167 1566.52 825.167 1562.72 825.167 1558.92 828.245 1555.84 832.042 1555.84ZM859.556 1555.84 859.57 1555.84C863.367 1555.84 866.445 1558.92 866.445 1562.72 866.445 1566.52 863.367 1569.59 859.57 1569.59L859.556 1569.59C855.759 1569.59 852.681 1566.52 852.681 1562.72 852.681 1558.92 855.759 1555.84 859.556 1555.84ZM887.07 1555.84 887.083 1555.84C890.88 1555.84 893.958 1558.92 893.958 1562.72 893.958 1566.52 890.88 1569.59 887.083 1569.59L887.07 1569.59C883.273 1569.59 880.195 1566.52 880.195 1562.72 880.195 1558.92 883.273 1555.84 887.07 1555.84ZM914.583 1555.84 914.597 1555.84C918.394 1555.84 921.472 1558.92 921.472 1562.72 921.472 1566.52 918.394 1569.59 914.597 1569.59L914.583 1569.59C910.786 1569.59 907.708 1566.52 907.708 1562.72 907.708 1558.92 910.786 1555.84 914.583 1555.84ZM942.097 1555.84 942.111 1555.84C945.908 1555.84 948.986 1558.92 948.986 1562.72 948.986 1566.52 945.908 1569.59 942.111 1569.59L942.097 1569.59C938.3 1569.59 935.222 1566.52 935.222 1562.72 935.222 1558.92 938.3 1555.84 942.097 1555.84ZM969.611 1555.84 969.625 1555.84C973.422 1555.84 976.5 1558.92 976.5 1562.72 976.5 1566.52 973.422 1569.59 969.625 1569.59L969.611 1569.59C965.814 1569.59 962.736 1566.52 962.736 1562.72 962.736 1558.92 965.814 1555.84 969.611 1555.84ZM997.125 1555.84 997.138 1555.84C1000.94 1555.84 1004.01 1558.92 1004.01 1562.72 1004.01 1566.52 1000.94 1569.59 997.138 1569.59L997.125 1569.59C993.328 1569.59 990.25 1566.52 990.25 1562.72 990.25 1558.92 993.328 1555.84 997.125 1555.84ZM1024.64 1555.84 1024.65 1555.84C1028.45 1555.84 1031.53 1558.92 1031.53 1562.72 1031.53 1566.52 1028.45 1569.59 1024.65 1569.59L1024.64 1569.59C1020.84 1569.59 1017.76 1566.52 1017.76 1562.72 1017.76 1558.92 1020.84 1555.84 1024.64 1555.84ZM1052.15 1555.84 1052.17 1555.84C1055.96 1555.84 1059.04 1558.92 1059.04 1562.72 1059.04 1566.52 1055.96 1569.59 1052.17 1569.59L1052.15 1569.59C1048.36 1569.59 1045.28 1566.52 1045.28 1562.72 1045.28 1558.92 1048.36 1555.84 1052.15 1555.84ZM1079.67 1555.84 1079.68 1555.84C1083.48 1555.84 1086.55 1558.92 1086.55 1562.72 1086.55 1566.52 1083.48 1569.59 1079.68 1569.59L1079.67 1569.59C1075.87 1569.59 1072.79 1566.52 1072.79 1562.72 1072.79 1558.92 1075.87 1555.84 1079.67 1555.84ZM1107.18 1555.84 1107.19 1555.84C1110.99 1555.84 1114.07 1558.92 1114.07 1562.72 1114.07 1566.52 1110.99 1569.59 1107.19 1569.59L1107.18 1569.59C1103.38 1569.59 1100.3 1566.52 1100.3 1562.72 1100.3 1558.92 1103.38 1555.84 1107.18 1555.84ZM1134.69 1555.84 1134.71 1555.84C1138.5 1555.84 1141.58 1558.92 1141.58 1562.72 1141.58 1566.52 1138.5 1569.59 1134.71 1569.59L1134.69 1569.59C1130.9 1569.59 1127.82 1566.52 1127.82 1562.72 1127.82 1558.92 1130.9 1555.84 1134.69 1555.84ZM1162.21 1555.84 1162.22 1555.84C1166.02 1555.84 1169.1 1558.92 1169.1 1562.72 1169.1 1566.52 1166.02 1569.59 1162.22 1569.59L1162.21 1569.59C1158.41 1569.59 1155.33 1566.52 1155.33 1562.72 1155.33 1558.92 1158.41 1555.84 1162.21 1555.84ZM1189.72 1555.84 1189.73 1555.84C1193.53 1555.84 1196.61 1558.92 1196.61 1562.72 1196.61 1566.52 1193.53 1569.59 1189.73 1569.59L1189.72 1569.59C1185.92 1569.59 1182.85 1566.52 1182.85 1562.72 1182.85 1558.92 1185.92 1555.84 1189.72 1555.84ZM1217.23 1555.84 1217.25 1555.84C1221.05 1555.84 1224.12 1558.92 1224.12 1562.72 1224.12 1566.52 1221.05 1569.59 1217.25 1569.59L1217.23 1569.59C1213.44 1569.59 1210.36 1566.52 1210.36 1562.72 1210.36 1558.92 1213.44 1555.84 1217.23 1555.84ZM1244.75 1555.84 1244.76 1555.84C1248.56 1555.84 1251.64 1558.92 1251.64 1562.72 1251.64 1566.52 1248.56 1569.59 1244.76 1569.59L1244.75 1569.59C1240.95 1569.59 1237.87 1566.52 1237.87 1562.72 1237.87 1558.92 1240.95 1555.84 1244.75 1555.84ZM1272.26 1555.84 1272.28 1555.84C1276.07 1555.84 1279.15 1558.92 1279.15 1562.72 1279.15 1566.52 1276.07 1569.59 1272.28 1569.59L1272.26 1569.59C1268.47 1569.59 1265.39 1566.52 1265.39 1562.72 1265.39 1558.92 1268.47 1555.84 1272.26 1555.84ZM1299.78 1555.84 1299.79 1555.84C1303.59 1555.84 1306.66 1558.92 1306.66 1562.72 1306.66 1566.52 1303.59 1569.59 1299.79 1569.59L1299.78 1569.59C1295.98 1569.59 1292.9 1566.52 1292.9 1562.72 1292.9 1558.92 1295.98 1555.84 1299.78 1555.84ZM1327.29 1555.84 1327.3 1555.84C1331.1 1555.84 1334.18 1558.92 1334.18 1562.72 1334.18 1566.52 1331.1 1569.59 1327.3 1569.59L1327.29 1569.59C1323.49 1569.59 1320.41 1566.52 1320.41 1562.72 1320.41 1558.92 1323.49 1555.84 1327.29 1555.84ZM1354.8 1555.84 1354.82 1555.84C1358.61 1555.84 1361.69 1558.92 1361.69 1562.72 1361.69 1566.52 1358.61 1569.59 1354.82 1569.59L1354.8 1569.59C1351.01 1569.59 1347.93 1566.52 1347.93 1562.72 1347.93 1558.92 1351.01 1555.84 1354.8 1555.84ZM1382.32 1555.84 1382.33 1555.84C1386.13 1555.84 1389.21 1558.92 1389.21 1562.72 1389.21 1566.52 1386.13 1569.59 1382.33 1569.59L1382.32 1569.59C1378.52 1569.59 1375.44 1566.52 1375.44 1562.72 1375.44 1558.92 1378.52 1555.84 1382.32 1555.84ZM1409.83 1555.84 1409.84 1555.84C1413.64 1555.84 1416.72 1558.92 1416.72 1562.72 1416.72 1566.52 1413.64 1569.59 1409.84 1569.59L1409.83 1569.59C1406.03 1569.59 1402.96 1566.52 1402.96 1562.72 1402.96 1558.92 1406.03 1555.84 1409.83 1555.84ZM1437.34 1555.84 1437.36 1555.84C1441.16 1555.84 1444.23 1558.92 1444.23 1562.72 1444.23 1566.52 1441.16 1569.59 1437.36 1569.59L1437.34 1569.59C1433.55 1569.59 1430.47 1566.52 1430.47 1562.72 1430.47 1558.92 1433.55 1555.84 1437.34 1555.84ZM1464.86 1555.84 1464.87 1555.84C1468.67 1555.84 1471.75 1558.92 1471.75 1562.72 1471.75 1566.52 1468.67 1569.59 1464.87 1569.59L1464.86 1569.59C1461.06 1569.59 1457.98 1566.52 1457.98 1562.72 1457.98 1558.92 1461.06 1555.84 1464.86 1555.84ZM1492.37 1555.84 1492.39 1555.84C1496.18 1555.84 1499.26 1558.92 1499.26 1562.72 1499.26 1566.52 1496.18 1569.59 1492.39 1569.59L1492.37 1569.59C1488.57 1569.59 1485.5 1566.52 1485.5 1562.72 1485.5 1558.92 1488.57 1555.84 1492.37 1555.84ZM1519.89 1555.84 1519.9 1555.84C1523.7 1555.84 1526.77 1558.92 1526.77 1562.72 1526.77 1566.52 1523.7 1569.59 1519.9 1569.59L1519.89 1569.59C1516.09 1569.59 1513.01 1566.52 1513.01 1562.72 1513.01 1558.92 1516.09 1555.84 1519.89 1555.84ZM1547.4 1555.84 1547.41 1555.84C1551.21 1555.84 1554.29 1558.92 1554.29 1562.72 1554.29 1566.52 1551.21 1569.59 1547.41 1569.59L1547.4 1569.59C1543.6 1569.59 1540.52 1566.52 1540.52 1562.72 1540.52 1558.92 1543.6 1555.84 1547.4 1555.84ZM1574.91 1555.84 1574.93 1555.84C1578.72 1555.84 1581.8 1558.92 1581.8 1562.72 1581.8 1566.52 1578.72 1569.59 1574.93 1569.59L1574.91 1569.59C1571.12 1569.59 1568.04 1566.52 1568.04 1562.72 1568.04 1558.92 1571.12 1555.84 1574.91 1555.84ZM1602.43 1555.84 1602.44 1555.84C1606.24 1555.84 1609.32 1558.92 1609.32 1562.72 1609.32 1566.52 1606.24 1569.59 1602.44 1569.59L1602.43 1569.59C1598.63 1569.59 1595.55 1566.52 1595.55 1562.72 1595.55 1558.92 1598.63 1555.84 1602.43 1555.84ZM1629.94 1555.84 1629.95 1555.84C1633.75 1555.84 1636.83 1558.92 1636.83 1562.72 1636.83 1566.52 1633.75 1569.59 1629.95 1569.59L1629.94 1569.59C1626.14 1569.59 1623.07 1566.52 1623.07 1562.72 1623.07 1558.92 1626.14 1555.84 1629.94 1555.84ZM1657.45 1555.84 1657.47 1555.84C1661.26 1555.84 1664.34 1558.92 1664.34 1562.72 1664.34 1566.52 1661.26 1569.59 1657.47 1569.59L1657.45 1569.59C1653.66 1569.59 1650.58 1566.52 1650.58 1562.72 1650.58 1558.92 1653.66 1555.84 1657.45 1555.84ZM1684.97 1555.84 1684.98 1555.84C1688.78 1555.84 1691.86 1558.92 1691.86 1562.72 1691.86 1566.52 1688.78 1569.59 1684.98 1569.59L1684.97 1569.59C1681.17 1569.59 1678.09 1566.52 1678.09 1562.72 1678.09 1558.92 1681.17 1555.84 1684.97 1555.84ZM1712.48 1555.84 1712.5 1555.84C1716.29 1555.84 1719.37 1558.92 1719.37 1562.72 1719.37 1566.52 1716.29 1569.59 1712.5 1569.59L1712.48 1569.59C1708.68 1569.59 1705.61 1566.52 1705.61 1562.72 1705.61 1558.92 1708.68 1555.84 1712.48 1555.84ZM1740 1555.84 1740.01 1555.84C1743.81 1555.84 1746.88 1558.92 1746.88 1562.72 1746.88 1566.52 1743.81 1569.59 1740.01 1569.59L1740 1569.59C1736.2 1569.59 1733.12 1566.52 1733.12 1562.72 1733.12 1558.92 1736.2 1555.84 1740 1555.84ZM1767.51 1555.84 1767.52 1555.84C1771.32 1555.84 1774.4 1558.92 1774.4 1562.72 1774.4 1566.52 1771.32 1569.59 1767.52 1569.59L1767.51 1569.59C1763.71 1569.59 1760.63 1566.52 1760.63 1562.72 1760.63 1558.92 1763.71 1555.84 1767.51 1555.84ZM1795.02 1555.84 1795.04 1555.84C1798.83 1555.84 1801.91 1558.92 1801.91 1562.72 1801.91 1566.52 1798.83 1569.59 1795.04 1569.59L1795.02 1569.59C1791.23 1569.59 1788.15 1566.52 1788.15 1562.72 1788.15 1558.92 1791.23 1555.84 1795.02 1555.84ZM1822.54 1555.84 1822.55 1555.84C1826.35 1555.84 1829.43 1558.92 1829.43 1562.72 1829.43 1566.52 1826.35 1569.59 1822.55 1569.59L1822.54 1569.59C1818.74 1569.59 1815.66 1566.52 1815.66 1562.72 1815.66 1558.92 1818.74 1555.84 1822.54 1555.84ZM1850.05 1555.84 1850.06 1555.84C1853.86 1555.84 1856.94 1558.92 1856.94 1562.72 1856.94 1566.52 1853.86 1569.59 1850.06 1569.59L1850.05 1569.59C1846.25 1569.59 1843.18 1566.52 1843.18 1562.72 1843.18 1558.92 1846.25 1555.84 1850.05 1555.84ZM1877.56 1555.84 1877.58 1555.84C1881.37 1555.84 1884.45 1558.92 1884.45 1562.72 1884.45 1566.52 1881.37 1569.59 1877.58 1569.59L1877.56 1569.59C1873.77 1569.59 1870.69 1566.52 1870.69 1562.72 1870.69 1558.92 1873.77 1555.84 1877.56 1555.84ZM1905.08 1555.84 1905.09 1555.84C1908.89 1555.84 1911.97 1558.92 1911.97 1562.72 1911.97 1566.52 1908.89 1569.59 1905.09 1569.59L1905.08 1569.59C1901.28 1569.59 1898.2 1566.52 1898.2 1562.72 1898.2 1558.92 1901.28 1555.84 1905.08 1555.84ZM1932.59 1555.84 1932.6 1555.84C1936.4 1555.84 1939.48 1558.92 1939.48 1562.72 1939.48 1566.52 1936.4 1569.59 1932.6 1569.59L1932.59 1569.59C1928.79 1569.59 1925.72 1566.52 1925.72 1562.72 1925.72 1558.92 1928.79 1555.84 1932.59 1555.84ZM1960.1 1555.84 1960.12 1555.84C1963.92 1555.84 1966.99 1558.92 1966.99 1562.72 1966.99 1566.52 1963.92 1569.59 1960.12 1569.59L1960.1 1569.59C1956.31 1569.59 1953.23 1566.52 1953.23 1562.72 1953.23 1558.92 1956.31 1555.84 1960.1 1555.84ZM1987.62 1555.84 1987.63 1555.84C1991.43 1555.84 1994.51 1558.92 1994.51 1562.72 1994.51 1566.52 1991.43 1569.59 1987.63 1569.59L1987.62 1569.59C1983.82 1569.59 1980.74 1566.52 1980.74 1562.72 1980.74 1558.92 1983.82 1555.84 1987.62 1555.84ZM2015.13 1555.84 2015.15 1555.84C2018.94 1555.84 2022.02 1558.92 2022.02 1562.72 2022.02 1566.52 2018.94 1569.59 2015.15 1569.59L2015.13 1569.59C2011.34 1569.59 2008.26 1566.52 2008.26 1562.72 2008.26 1558.92 2011.34 1555.84 2015.13 1555.84ZM2042.65 1555.84 2042.66 1555.84C2046.46 1555.84 2049.54 1558.92 2049.54 1562.72 2049.54 1566.52 2046.46 1569.59 2042.66 1569.59L2042.65 1569.59C2038.85 1569.59 2035.77 1566.52 2035.77 1562.72 2035.77 1558.92 2038.85 1555.84 2042.65 1555.84ZM2070.16 1555.84 2070.17 1555.84C2073.97 1555.84 2077.05 1558.92 2077.05 1562.72 2077.05 1566.52 2073.97 1569.59 2070.17 1569.59L2070.16 1569.59C2066.36 1569.59 2063.29 1566.52 2063.29 1562.72 2063.29 1558.92 2066.36 1555.84 2070.16 1555.84ZM2097.67 1555.84 2097.69 1555.84C2101.48 1555.84 2104.56 1558.92 2104.56 1562.72 2104.56 1566.52 2101.48 1569.59 2097.69 1569.59L2097.67 1569.59C2093.88 1569.59 2090.8 1566.52 2090.8 1562.72 2090.8 1558.92 2093.88 1555.84 2097.67 1555.84ZM2096.53 1542.09 2137.78 1562.72 2096.53 1583.34Z" fill="#EB7D2D"/><path d="M757 1108.13 757.014 1108.13C760.811 1108.13 763.889 1111.2 763.889 1115 763.889 1118.8 760.811 1121.88 757.014 1121.88L757 1121.88C753.203 1121.88 750.125 1118.8 750.125 1115 750.125 1111.2 753.203 1108.13 757 1108.13ZM784.514 1108.13 784.527 1108.13C788.324 1108.13 791.402 1111.2 791.402 1115 791.402 1118.8 788.324 1121.88 784.527 1121.88L784.514 1121.88C780.717 1121.88 777.639 1118.8 777.639 1115 777.639 1111.2 780.717 1108.13 784.514 1108.13ZM799.542 1134.36 799.542 1134.37C799.542 1138.17 796.464 1141.25 792.667 1141.25 788.87 1141.25 785.792 1138.17 785.792 1134.37L785.792 1134.36C785.792 1130.56 788.87 1127.49 792.667 1127.49 796.464 1127.49 799.542 1130.56 799.542 1134.36ZM799.542 1161.87 799.542 1161.89C799.542 1165.69 796.464 1168.76 792.667 1168.76 788.87 1168.76 785.792 1165.69 785.792 1161.89L785.792 1161.87C785.792 1158.08 788.87 1155 792.667 1155 796.464 1155 799.542 1158.08 799.542 1161.87ZM799.542 1189.39 799.542 1189.4C799.542 1193.2 796.464 1196.28 792.667 1196.28 788.87 1196.28 785.792 1193.2 785.792 1189.4L785.792 1189.39C785.792 1185.59 788.87 1182.51 792.667 1182.51 796.464 1182.51 799.542 1185.59 799.542 1189.39ZM799.542 1216.9 799.542 1216.92C799.542 1220.71 796.464 1223.79 792.667 1223.79 788.87 1223.79 785.792 1220.71 785.792 1216.92L785.792 1216.9C785.792 1213.11 788.87 1210.03 792.667 1210.03 796.464 1210.03 799.542 1213.11 799.542 1216.9ZM799.542 1244.42 799.542 1244.43C799.542 1248.23 796.464 1251.3 792.667 1251.3 788.87 1251.3 785.792 1248.23 785.792 1244.43L785.792 1244.42C785.792 1240.62 788.87 1237.54 792.667 1237.54 796.464 1237.54 799.542 1240.62 799.542 1244.42ZM799.542 1271.93 799.542 1271.94C799.542 1275.74 796.464 1278.82 792.667 1278.82 788.87 1278.82 785.792 1275.74 785.792 1271.94L785.792 1271.93C785.792 1268.13 788.87 1265.05 792.667 1265.05 796.464 1265.05 799.542 1268.13 799.542 1271.93ZM799.542 1299.44 799.542 1299.46C799.542 1303.25 796.464 1306.33 792.667 1306.33 788.87 1306.33 785.792 1303.25 785.792 1299.46L785.792 1299.44C785.792 1295.65 788.87 1292.57 792.667 1292.57 796.464 1292.57 799.542 1295.65 799.542 1299.44ZM799.542 1326.96 799.542 1326.97C799.542 1330.77 796.464 1333.85 792.667 1333.85 788.87 1333.85 785.792 1330.77 785.792 1326.97L785.792 1326.96C785.792 1323.16 788.87 1320.08 792.667 1320.08 796.464 1320.08 799.542 1323.16 799.542 1326.96ZM799.542 1354.47 799.542 1354.48C799.542 1358.28 796.464 1361.36 792.667 1361.36 788.87 1361.36 785.792 1358.28 785.792 1354.48L785.792 1354.47C785.792 1350.67 788.87 1347.6 792.667 1347.6 796.464 1347.6 799.542 1350.67 799.542 1354.47ZM799.542 1381.98 799.542 1382C799.542 1385.8 796.464 1388.87 792.667 1388.87 788.87 1388.87 785.792 1385.8 785.792 1382L785.792 1381.98C785.792 1378.19 788.87 1375.11 792.667 1375.11 796.464 1375.11 799.542 1378.19 799.542 1381.98ZM799.542 1409.5 799.542 1409.51C799.542 1413.31 796.464 1416.39 792.667 1416.39 788.87 1416.39 785.792 1413.31 785.792 1409.51L785.792 1409.5C785.792 1405.7 788.87 1402.62 792.667 1402.62 796.464 1402.62 799.542 1405.7 799.542 1409.5ZM799.542 1437.01 799.542 1437.03C799.542 1440.82 796.464 1443.9 792.667 1443.9 788.87 1443.9 785.792 1440.82 785.792 1437.03L785.792 1437.01C785.792 1433.22 788.87 1430.14 792.667 1430.14 796.464 1430.14 799.542 1433.22 799.542 1437.01ZM799.542 1464.53 799.542 1464.54C799.542 1468.34 796.464 1471.41 792.667 1471.41 788.87 1471.41 785.792 1468.34 785.792 1464.54L785.792 1464.53C785.792 1460.73 788.87 1457.65 792.667 1457.65 796.464 1457.65 799.542 1460.73 799.542 1464.53ZM799.542 1492.04 799.542 1492.05C799.542 1495.85 796.464 1498.93 792.667 1498.93 788.87 1498.93 785.792 1495.85 785.792 1492.05L785.792 1492.04C785.792 1488.24 788.87 1485.16 792.667 1485.16 796.464 1485.16 799.542 1488.24 799.542 1492.04ZM799.542 1519.55 799.542 1519.57C799.542 1523.36 796.464 1526.44 792.667 1526.44 788.87 1526.44 785.792 1523.36 785.792 1519.57L785.792 1519.55C785.792 1515.76 788.87 1512.68 792.667 1512.68 796.464 1512.68 799.542 1515.76 799.542 1519.55ZM799.542 1547.07 799.542 1547.08C799.542 1550.88 796.464 1553.96 792.667 1553.96 788.87 1553.96 785.792 1550.88 785.792 1547.08L785.792 1547.07C785.792 1543.27 788.87 1540.19 792.667 1540.19 796.464 1540.19 799.542 1543.27 799.542 1547.07ZM799.542 1574.58 799.542 1574.59C799.542 1578.39 796.464 1581.47 792.667 1581.47 788.87 1581.47 785.792 1578.39 785.792 1574.59L785.792 1574.58C785.792 1570.78 788.87 1567.71 792.667 1567.71 796.464 1567.71 799.542 1570.78 799.542 1574.58ZM799.542 1602.09 799.542 1602.11C799.542 1605.91 796.464 1608.98 792.667 1608.98 788.87 1608.98 785.792 1605.91 785.792 1602.11L785.792 1602.09C785.792 1598.3 788.87 1595.22 792.667 1595.22 796.464 1595.22 799.542 1598.3 799.542 1602.09ZM799.542 1629.61 799.542 1629.62C799.542 1633.42 796.464 1636.5 792.667 1636.5 788.87 1636.5 785.792 1633.42 785.792 1629.62L785.792 1629.61C785.792 1625.81 788.87 1622.73 792.667 1622.73 796.464 1622.73 799.542 1625.81 799.542 1629.61ZM799.542 1657.12 799.542 1657.14C799.542 1660.93 796.464 1664.01 792.667 1664.01 788.87 1664.01 785.792 1660.93 785.792 1657.14L785.792 1657.12C785.792 1653.33 788.87 1650.25 792.667 1650.25 796.464 1650.25 799.542 1653.33 799.542 1657.12ZM799.542 1684.64 799.542 1684.65C799.542 1688.45 796.464 1691.52 792.667 1691.52 788.87 1691.52 785.792 1688.45 785.792 1684.65L785.792 1684.64C785.792 1680.84 788.87 1677.76 792.667 1677.76 796.464 1677.76 799.542 1680.84 799.542 1684.64ZM799.542 1712.15 799.542 1712.16C799.542 1715.96 796.464 1719.04 792.667 1719.04 788.87 1719.04 785.792 1715.96 785.792 1712.16L785.792 1712.15C785.792 1708.35 788.87 1705.27 792.667 1705.27 796.464 1705.27 799.542 1708.35 799.542 1712.15ZM799.542 1739.66 799.542 1739.68C799.542 1743.47 796.464 1746.55 792.667 1746.55 788.87 1746.55 785.792 1743.47 785.792 1739.68L785.792 1739.66C785.792 1735.87 788.87 1732.79 792.667 1732.79 796.464 1732.79 799.542 1735.87 799.542 1739.66ZM799.542 1767.18 799.542 1767.19C799.542 1770.99 796.464 1774.07 792.667 1774.07 788.87 1774.07 785.792 1770.99 785.792 1767.19L785.792 1767.18C785.792 1763.38 788.87 1760.3 792.667 1760.3 796.464 1760.3 799.542 1763.38 799.542 1767.18ZM799.542 1794.69 799.542 1794.7C799.542 1798.5 796.464 1801.58 792.667 1801.58 788.87 1801.58 785.792 1798.5 785.792 1794.7L785.792 1794.69C785.792 1790.89 788.87 1787.82 792.667 1787.82 796.464 1787.82 799.542 1790.89 799.542 1794.69ZM806.292 1801.7 806.306 1801.7C810.102 1801.7 813.181 1804.78 813.181 1808.58 813.181 1812.38 810.102 1815.45 806.306 1815.45L806.292 1815.45C802.495 1815.45 799.417 1812.38 799.417 1808.58 799.417 1804.78 802.495 1801.7 806.292 1801.7ZM824.896 1787.95 866.146 1808.58 824.896 1829.2Z" fill="#EB7D2D"/><path d="M0-6.875 0.01375-6.875C3.81071-6.875 6.88875-3.79696 6.88875 0 6.88875 3.79696 3.81071 6.875 0.01375 6.875L0 6.875C-3.79696 6.875-6.875 3.79696-6.875 0-6.875-3.79696-3.79696-6.875 0-6.875ZM27.5138-6.875 27.5275-6.875C31.3245-6.875 34.4025-3.79696 34.4025 0 34.4025 3.79696 31.3245 6.875 27.5275 6.875L27.5138 6.875C23.7168 6.875 20.6388 3.79696 20.6388 0 20.6388-3.79696 23.7168-6.875 27.5138-6.875ZM55.0275-6.875 55.0412-6.875C58.8382-6.875 61.9162-3.79696 61.9162 0 61.9162 3.79696 58.8382 6.875 55.0412 6.875L55.0275 6.875C51.2305 6.875 48.1525 3.79696 48.1525 0 48.1525-3.79696 51.2305-6.875 55.0275-6.875ZM82.5412-6.875 82.555-6.875C86.352-6.875 89.43-3.79696 89.43 0 89.43 3.79696 86.352 6.875 82.555 6.875L82.5412 6.875C78.7443 6.875 75.6662 3.79696 75.6662 0 75.6662-3.79696 78.7443-6.875 82.5412-6.875ZM110.055-6.875 110.069-6.875C113.866-6.875 116.944-3.79696 116.944 0 116.944 3.79696 113.866 6.875 110.069 6.875L110.055 6.875C106.258 6.875 103.18 3.79696 103.18 0 103.18-3.79696 106.258-6.875 110.055-6.875ZM143.283 1.16026 143.283 1.17401C143.283 4.97097 140.205 8.04901 136.408 8.04901 132.612 8.04901 129.533 4.97097 129.533 1.17401L129.533 1.16026C129.533-2.6367 132.612-5.71474 136.408-5.71474 140.205-5.71474 143.283-2.6367 143.283 1.16026ZM143.283 28.674 143.283 28.6878C143.283 32.4847 140.205 35.5628 136.408 35.5628 132.612 35.5628 129.533 32.4847 129.533 28.6878L129.533 28.674C129.533 24.8771 132.612 21.799 136.408 21.799 140.205 21.799 143.283 24.8771 143.283 28.674ZM143.283 56.1878 143.283 56.2015C143.283 59.9985 140.205 63.0765 136.408 63.0765 132.612 63.0765 129.533 59.9985 129.533 56.2015L129.533 56.1878C129.533 52.3908 132.612 49.3128 136.408 49.3128 140.205 49.3128 143.283 52.3908 143.283 56.1878ZM143.283 83.7015 143.283 83.7153C143.283 87.5122 140.205 90.5903 136.408 90.5903 132.612 90.5903 129.533 87.5122 129.533 83.7153L129.533 83.7015C129.533 79.9045 132.612 76.8265 136.408 76.8265 140.205 76.8265 143.283 79.9045 143.283 83.7015ZM143.283 111.215 143.283 111.229C143.283 115.026 140.205 118.104 136.408 118.104 132.612 118.104 129.533 115.026 129.533 111.229L129.533 111.215C129.533 107.418 132.612 104.34 136.408 104.34 140.205 104.34 143.283 107.418 143.283 111.215ZM143.283 138.729 143.283 138.743C143.283 142.54 140.205 145.618 136.408 145.618 132.612 145.618 129.533 142.54 129.533 138.743L129.533 138.729C129.533 134.932 132.612 131.854 136.408 131.854 140.205 131.854 143.283 134.932 143.283 138.729ZM143.283 166.243 143.283 166.257C143.283 170.053 140.205 173.132 136.408 173.132 132.612 173.132 129.533 170.053 129.533 166.257L129.533 166.243C129.533 162.446 132.612 159.368 136.408 159.368 140.205 159.368 143.283 162.446 143.283 166.243ZM139.454 183.836 139.467 183.836C143.264 183.836 146.342 186.914 146.342 190.711 146.342 194.508 143.264 197.586 139.467 197.586L139.454 197.586C135.657 197.586 132.579 194.508 132.579 190.711 132.579 186.914 135.657 183.836 139.454 183.836ZM166.967 183.836 166.981 183.836C170.778 183.836 173.856 186.914 173.856 190.711 173.856 194.508 170.778 197.586 166.981 197.586L166.967 197.586C163.17 197.586 160.092 194.508 160.092 190.711 160.092 186.914 163.17 183.836 166.967 183.836ZM194.481 183.836 194.495 183.836C198.292 183.836 201.37 186.914 201.37 190.711 201.37 194.508 198.292 197.586 194.495 197.586L194.481 197.586C190.684 197.586 187.606 194.508 187.606 190.711 187.606 186.914 190.684 183.836 194.481 183.836ZM221.995 183.836 222.009 183.836C225.806 183.836 228.884 186.914 228.884 190.711 228.884 194.508 225.806 197.586 222.009 197.586L221.995 197.586C218.198 197.586 215.12 194.508 215.12 190.711 215.12 186.914 218.198 183.836 221.995 183.836ZM231.567 170.086 272.817 190.711 231.567 211.336Z" fill="#EB7D2D" transform="matrix(1 0 0 -1 1866 1808.71)"/><path d="M1875 995 2003.13 995 2003.13 1354.32" stroke="#91CD4B" stroke-width="13.75" stroke-miterlimit="8" fill="none" fill-rule="evenodd"/><path d="M1997 1346.12 2105.11 1346.13 2105.11 1359.88 1997 1359.88ZM2098.24 1332.38 2139.49 1353 2098.24 1373.63Z" fill="#91CD4B"/></g></svg>